<svg xmlns="http://www.w3.org/2000/svg" xmlns:v="https://svgstorm.com"
viewBox = "0 0 512 512"
width="512"
height="512">
<g fill="None" fill-opacity="0.0" stroke="#000000" stroke-opacity="0.00" stroke-width="0.3"><path d="
M 0.00 512.00 
L 512.00 512.00
L 512.00 0.00
L 0.00 0.00
L 0.00 512.00
M 349.00 72.00 
C 355.99 65.92 365.54 54.15 374.75 63.25 C 383.96 72.35 371.55 82.51 364.00 87.00
C 365.93 94.64 372.84 95.67 375.32 103.68 C 377.80 111.68 369.66 117.85 362.00 117.00 C 354.34 116.15 353.64 104.17 347.75 103.25 C 341.87 102.33 338.56 113.82 331.78 114.78 C 324.99 115.74 315.30 109.30 318.33 101.33 C 321.36 93.36 327.33 92.15 333.00 87.00
C 328.08 79.26 313.96 71.08 323.25 61.25 C 332.54 51.42 343.39 64.27 349.00 72.00
M 265.00 127.00 
C 282.16 145.28 287.93 170.62 286.00 196.00
C 300.35 193.55 309.30 216.00 293.00 219.00
C 304.16 230.83 289.72 242.89 277.98 237.02 C 266.23 231.16 262.36 247.87 251.77 252.77 C 241.18 257.67 232.02 264.92 218.99 265.99 C 205.96 267.06 187.76 266.88 174.00 267.00 C 160.24 267.12 143.00 266.70 129.99 266.01 C 116.99 265.32 107.46 257.87 96.77 253.23 C 86.08 248.59 82.42 231.62 70.93 236.93 C 59.43 242.23 43.60 231.67 55.00 219.00
C 39.07 215.24 47.49 193.21 62.00 196.00
C 60.01 170.65 66.16 145.48 83.00 127.00
C 80.09 111.66 82.42 102.02 87.32 87.32 C 92.23 72.63 108.96 77.68 121.02 79.98 C 133.09 82.27 138.90 96.52 151.00 97.00 C 163.10 97.48 186.02 98.73 198.00 97.00 C 209.98 95.27 215.63 82.45 228.03 80.02 C 240.42 77.60 256.17 73.13 260.92 88.08 C 265.68 103.02 268.19 111.94 265.00 127.00
M 397.00 116.00 
C 420.68 116.42 435.89 146.28 423.08 166.08 C 410.26 185.87 379.15 186.75 367.08 164.92 C 355.01 143.10 371.62 115.55 397.00 116.00
M 176.00 290.00 
C 199.49 293.82 209.80 324.79 194.75 342.75 C 179.70 360.71 149.73 358.30 139.70 335.31 C 129.66 312.31 150.47 285.85 176.00 290.00
M 344.00 291.00 
C 358.89 293.67 369.29 304.05 382.75 310.25 C 396.21 316.45 420.04 309.94 433.68 317.32 C 447.32 324.71 458.89 329.42 463.92 345.08 C 468.96 360.73 463.84 378.67 457.23 392.23 C 450.62 405.79 443.38 415.19 431.75 424.75 C 420.13 434.31 408.15 439.88 393.98 444.98 C 379.80 450.07 360.73 454.81 345.00 454.00 C 329.27 453.19 322.26 438.90 313.25 427.75 C 304.23 416.61 297.96 404.46 291.68 391.32 C 285.40 378.18 279.48 359.62 281.33 344.33 C 283.18 329.04 289.30 316.28 299.75 304.75 C 310.20 293.23 328.29 288.19 344.00 291.00
M 121.00 361.00 
C 143.76 365.08 153.11 397.99 137.25 414.25 C 121.38 430.50 91.57 429.16 83.02 404.98 C 74.48 380.79 94.04 356.17 121.00 361.00
M 216.00 390.00 
C 223.35 385.71 233.92 371.08 243.25 380.75 C 252.57 390.43 238.17 401.05 231.00 406.00
C 236.59 413.21 249.88 422.31 240.75 431.75 C 231.62 441.19 220.30 429.21 216.00 421.00
C 208.08 425.35 198.91 439.46 189.25 429.75 C 179.59 420.04 193.34 409.79 201.00 405.00
C 195.47 397.69 182.23 388.71 191.25 379.25 C 200.27 369.79 211.40 381.99 216.00 390.00 Z"/>
</g>
<g fill="None" fill-opacity="0.0" stroke="#00384A" stroke-opacity="0.94" stroke-width="0.3"><path d="
M 349.00 72.00 
C 343.39 64.27 332.54 51.42 323.25 61.25 C 313.96 71.08 328.08 79.26 333.00 87.00
C 327.33 92.15 321.36 93.36 318.33 101.33 C 315.30 109.30 324.99 115.74 331.78 114.78 C 338.56 113.82 341.87 102.33 347.75 103.25 C 353.64 104.17 354.34 116.15 362.00 117.00 C 369.66 117.85 377.80 111.68 375.32 103.68 C 372.84 95.67 365.93 94.64 364.00 87.00
C 371.55 82.51 383.96 72.35 374.75 63.25 C 365.54 54.15 355.99 65.92 349.00 72.00 Z"/>
</g>
<g fill="None" fill-opacity="0.0" stroke="#00384A" stroke-opacity="0.97" stroke-width="0.3"><path d="
M 265.00 127.00 
C 268.19 111.94 265.68 103.02 260.92 88.08 C 256.17 73.13 240.42 77.60 228.03 80.02 C 215.63 82.45 209.98 95.27 198.00 97.00 C 186.02 98.73 163.10 97.48 151.00 97.00 C 138.90 96.52 133.09 82.27 121.02 79.98 C 108.96 77.68 92.23 72.63 87.32 87.32 C 82.42 102.02 80.09 111.66 83.00 127.00
C 66.16 145.48 60.01 170.65 62.00 196.00
C 47.49 193.21 39.07 215.24 55.00 219.00
C 43.60 231.67 59.43 242.23 70.93 236.93 C 82.42 231.62 86.08 248.59 96.77 253.23 C 107.46 257.87 116.99 265.32 129.99 266.01 C 143.00 266.70 160.24 267.12 174.00 267.00 C 187.76 266.88 205.96 267.06 218.99 265.99 C 232.02 264.92 241.18 257.67 251.77 252.77 C 262.36 247.87 266.23 231.16 277.98 237.02 C 289.72 242.89 304.16 230.83 293.00 219.00
C 309.30 216.00 300.35 193.55 286.00 196.00
C 287.93 170.62 282.16 145.28 265.00 127.00
M 140.00 118.00 
C 148.07 119.45 157.78 118.00 166.00 118.00
C 171.33 118.00 176.67 118.00 182.00 118.00
C 190.22 118.00 199.93 119.45 208.00 118.00
C 220.15 114.16 220.41 103.84 234.08 100.08 C 247.74 96.31 246.30 115.29 244.07 126.07 C 241.85 136.85 253.57 145.74 258.00 155.00
C 263.13 165.72 267.02 176.97 265.00 190.00
C 254.64 187.00 248.05 202.79 257.00 208.00
C 247.49 209.32 242.94 220.25 249.00 228.00
C 229.69 249.81 199.91 245.76 173.00 246.00 C 146.09 246.24 116.95 248.88 98.00 227.00
C 105.07 219.69 97.65 208.72 89.00 209.00
C 101.14 205.86 94.86 186.88 83.00 190.00
C 82.42 177.69 83.47 164.93 90.00 155.00
C 93.09 148.76 93.87 144.07 100.25 139.25 C 106.63 134.43 103.45 126.68 103.00 120.00
C 102.38 116.53 102.45 113.40 103.00 110.00
C 103.78 95.66 110.54 98.71 120.08 102.92 C 129.61 107.13 130.66 115.05 140.00 118.00 Z"/>
</g>
<g fill="None" fill-opacity="0.0" stroke="#F39E05" stroke-opacity="1.00" stroke-width="0.3"><path d="
M 103.00 110.00 
C 102.82 113.25 102.78 116.75 103.00 120.00
C 103.45 126.68 106.63 134.43 100.25 139.25 C 93.87 144.07 93.09 148.76 90.00 155.00
C 96.97 151.99 109.98 156.85 117.00 154.00 C 124.02 151.15 131.48 150.48 137.69 146.69 C 143.91 142.91 149.32 140.43 154.25 135.25 C 159.18 130.07 163.45 125.49 166.00 119.00
C 158.22 119.70 146.86 120.17 140.00 118.00
C 130.66 115.05 129.61 107.13 120.08 102.92 C 110.54 98.71 103.78 95.66 103.00 110.00 Z"/>
</g>
<g fill="None" fill-opacity="0.0" stroke="#E54E17" stroke-opacity="1.00" stroke-width="0.3"><path d="
M 208.00 118.00 
C 201.08 120.19 189.77 119.70 182.00 119.00
C 184.24 125.23 189.07 130.34 193.75 135.25 C 198.44 140.16 204.21 142.95 210.23 146.77 C 216.25 150.59 224.41 150.68 231.22 153.78 C 238.03 156.87 251.18 152.06 258.00 155.00
C 253.57 145.74 241.85 136.85 244.07 126.07 C 246.30 115.29 247.74 96.31 234.08 100.08 C 220.41 103.84 220.15 114.16 208.00 118.00 Z"/>
</g>
<g fill="None" fill-opacity="0.0" stroke="#555B31" stroke-opacity="1.00" stroke-width="0.3"><path d="
M 103.00 120.00 
C 102.78 116.75 102.82 113.25 103.00 110.00
C 102.45 113.40 102.38 116.53 103.00 120.00 Z"/>
</g>
<g fill="None" fill-opacity="0.0" stroke="#00384A" stroke-opacity="0.95" stroke-width="0.3"><path d="
M 397.00 116.00 
C 371.62 115.55 355.01 143.10 367.08 164.92 C 379.15 186.75 410.26 185.87 423.08 166.08 C 435.89 146.28 420.68 116.42 397.00 116.00
M 398.00 138.00 
C 411.30 140.61 406.36 163.02 392.78 159.22 C 379.20 155.42 383.96 135.25 398.00 138.00 Z"/>
</g>
<g fill="None" fill-opacity="0.0" stroke="#BC8712" stroke-opacity="1.00" stroke-width="0.3"><path d="
M 166.00 119.00 
C 166.17 118.57 166.00 118.00 166.00 118.00
C 157.78 118.00 148.07 119.45 140.00 118.00
C 146.86 120.17 158.22 119.70 166.00 119.00 Z"/>
</g>
<g fill="None" fill-opacity="0.0" stroke="#FDFDFD" stroke-opacity="1.00" stroke-width="0.3"><path d="
M 166.00 119.00 
C 163.45 125.49 159.18 130.07 154.25 135.25 C 149.32 140.43 143.91 142.91 137.69 146.69 C 131.48 150.48 124.02 151.15 117.00 154.00 C 109.98 156.85 96.97 151.99 90.00 155.00
C 83.47 164.93 82.42 177.69 83.00 190.00
C 94.86 186.88 101.14 205.86 89.00 209.00
C 97.65 208.72 105.07 219.69 98.00 227.00
C 116.95 248.88 146.09 246.24 173.00 246.00 C 199.91 245.76 229.69 249.81 249.00 228.00
C 242.94 220.25 247.49 209.32 257.00 208.00
C 248.05 202.79 254.64 187.00 265.00 190.00
C 267.02 176.97 263.13 165.72 258.00 155.00
C 251.18 152.06 238.03 156.87 231.22 153.78 C 224.41 150.68 216.25 150.59 210.23 146.77 C 204.21 142.95 198.44 140.16 193.75 135.25 C 189.07 130.34 184.24 125.23 182.00 119.00
C 181.84 118.56 182.00 118.00 182.00 118.00
C 176.67 118.00 171.33 118.00 166.00 118.00
C 166.00 118.00 166.17 118.57 166.00 119.00
M 136.00 171.00 
C 143.16 172.31 147.40 185.28 140.25 189.25 C 133.09 193.22 125.18 195.16 117.00 196.00 C 108.81 196.84 106.02 180.23 112.75 177.75 C 119.48 175.27 128.56 169.64 136.00 171.00
M 216.00 171.00 
C 223.08 171.68 242.72 175.93 239.00 188.00 C 235.28 200.07 221.81 194.30 211.78 191.22 C 201.75 188.14 201.70 169.64 216.00 171.00
M 193.00 195.00 
C 196.37 200.08 187.79 207.03 184.30 210.30 C 180.82 213.57 168.02 213.59 164.31 210.69 C 160.59 207.80 151.69 199.98 155.00 195.00
C 156.90 192.14 170.45 194.01 174.00 194.00 C 177.55 193.99 191.13 192.18 193.00 195.00 Z"/>
</g>
<g fill="None" fill-opacity="0.0" stroke="#AF4822" stroke-opacity="1.00" stroke-width="0.3"><path d="
M 182.00 119.00 
C 189.77 119.70 201.08 120.19 208.00 118.00
C 199.93 119.45 190.22 118.00 182.00 118.00
C 182.00 118.00 181.84 118.56 182.00 119.00 Z"/>
</g>
<g fill="None" fill-opacity="0.0" stroke="#000000" stroke-opacity="0.00" stroke-width="0.3"><path d="
M 398.00 138.00 
C 383.96 135.25 379.20 155.42 392.78 159.22 C 406.36 163.02 411.30 140.61 398.00 138.00 Z"/>
</g>
<g fill="None" fill-opacity="0.0" stroke="#043B4D" stroke-opacity="1.00" stroke-width="0.3"><path d="
M 136.00 171.00 
C 128.56 169.64 119.48 175.27 112.75 177.75 C 106.02 180.23 108.81 196.84 117.00 196.00 C 125.18 195.16 133.09 193.22 140.25 189.25 C 147.40 185.28 143.16 172.31 136.00 171.00 Z"/>
</g>
<g fill="None" fill-opacity="0.0" stroke="#043B4C" stroke-opacity="1.00" stroke-width="0.3"><path d="
M 216.00 171.00 
C 201.70 169.64 201.75 188.14 211.78 191.22 C 221.81 194.30 235.28 200.07 239.00 188.00 C 242.72 175.93 223.08 171.68 216.00 171.00 Z"/>
</g>
<g fill="None" fill-opacity="0.0" stroke="#88A2AB" stroke-opacity="1.00" stroke-width="0.3"><path d="
M 155.00 195.00 
C 167.67 195.00 180.33 195.00 193.00 195.00
C 191.13 192.18 177.55 193.99 174.00 194.00 C 170.45 194.01 156.90 192.14 155.00 195.00 Z"/>
</g>
<g fill="None" fill-opacity="0.0" stroke="#02394B" stroke-opacity="1.00" stroke-width="0.3"><path d="
M 193.00 195.00 
C 180.33 195.00 167.67 195.00 155.00 195.00
C 151.69 199.98 160.59 207.80 164.31 210.69 C 168.02 213.59 180.82 213.57 184.30 210.30 C 187.79 207.03 196.37 200.08 193.00 195.00 Z"/>
</g>
<g fill="None" fill-opacity="0.0" stroke="#00384A" stroke-opacity="0.95" stroke-width="0.3"><path d="
M 176.00 290.00 
C 150.47 285.85 129.66 312.31 139.70 335.31 C 149.73 358.30 179.70 360.71 194.75 342.75 C 209.80 324.79 199.49 293.82 176.00 290.00
M 170.00 311.00 
C 182.83 311.30 184.49 332.65 170.00 333.00 C 155.51 333.35 156.04 310.68 170.00 311.00 Z"/>
</g>
<g fill="None" fill-opacity="0.0" stroke="#01384A" stroke-opacity="0.97" stroke-width="0.3"><path d="
M 344.00 291.00 
C 328.29 288.19 310.20 293.23 299.75 304.75 C 289.30 316.28 283.18 329.04 281.33 344.33 C 279.48 359.62 285.40 378.18 291.68 391.32 C 297.96 404.46 304.23 416.61 313.25 427.75 C 322.26 438.90 329.27 453.19 345.00 454.00 C 360.73 454.81 379.80 450.07 393.98 444.98 C 408.15 439.88 420.13 434.31 431.75 424.75 C 443.38 415.19 450.62 405.79 457.23 392.23 C 463.84 378.67 468.96 360.73 463.92 345.08 C 458.89 329.42 447.32 324.71 433.68 317.32 C 420.04 309.94 396.21 316.45 382.75 310.25 C 369.29 304.05 358.89 293.67 344.00 291.00
M 338.00 311.00 
C 351.84 312.98 360.70 322.72 372.75 329.25 C 384.81 335.78 406.71 331.00 420.02 334.98 C 433.34 338.96 447.14 347.07 444.22 362.22 C 441.31 377.38 437.11 387.38 427.75 398.75 C 418.39 410.11 409.49 414.57 396.92 420.92 C 384.35 427.27 370.40 430.67 355.98 432.98 C 341.55 435.29 333.90 420.11 326.25 409.75 C 318.59 399.40 313.23 387.44 307.69 375.31 C 302.16 363.17 299.93 344.68 306.31 332.31 C 312.68 319.93 322.68 308.81 338.00 311.00 Z"/>
</g>
<g fill="None" fill-opacity="0.0" stroke="#000000" stroke-opacity="0.00" stroke-width="0.3"><path d="
M 170.00 311.00 
C 156.04 310.68 155.51 333.35 170.00 333.00 C 184.49 332.65 182.83 311.30 170.00 311.00 Z"/>
</g>
<g fill="None" fill-opacity="0.0" stroke="#EFAFCF" stroke-opacity="1.00" stroke-width="0.3"><path d="
M 338.00 311.00 
C 322.68 308.81 312.68 319.93 306.31 332.31 C 299.93 344.68 302.16 363.17 307.69 375.31 C 313.23 387.44 318.59 399.40 326.25 409.75 C 333.90 420.11 341.55 435.29 355.98 432.98 C 370.40 430.67 384.35 427.27 396.92 420.92 C 409.49 414.57 418.39 410.11 427.75 398.75 C 437.11 387.38 441.31 377.38 444.22 362.22 C 447.14 347.07 433.34 338.96 420.02 334.98 C 406.71 331.00 384.81 335.78 372.75 329.25 C 360.70 322.72 351.84 312.98 338.00 311.00 Z"/>
</g>
<g fill="None" fill-opacity="0.0" stroke="#00374A" stroke-opacity="0.95" stroke-width="0.3"><path d="
M 121.00 361.00 
C 94.04 356.17 74.48 380.79 83.02 404.98 C 91.57 429.16 121.38 430.50 137.25 414.25 C 153.11 397.99 143.76 365.08 121.00 361.00
M 116.00 382.00 
C 129.20 384.79 124.00 407.64 110.33 403.67 C 96.66 399.70 102.10 379.06 116.00 382.00 Z"/>
</g>
<g fill="None" fill-opacity="0.0" stroke="#00374A" stroke-opacity="0.94" stroke-width="0.3"><path d="
M 216.00 390.00 
C 211.40 381.99 200.27 369.79 191.25 379.25 C 182.23 388.71 195.47 397.69 201.00 405.00
C 193.34 409.79 179.59 420.04 189.25 429.75 C 198.91 439.46 208.08 425.35 216.00 421.00
C 220.30 429.21 231.62 441.19 240.75 431.75 C 249.88 422.31 236.59 413.21 231.00 406.00
C 238.17 401.05 252.57 390.43 243.25 380.75 C 233.92 371.08 223.35 385.71 216.00 390.00 Z"/>
</g>
<g fill="None" fill-opacity="0.0" stroke="#000000" stroke-opacity="0.00" stroke-width="0.3"><path d="
M 116.00 382.00 
C 102.10 379.06 96.66 399.70 110.33 403.67 C 124.00 407.64 129.20 384.79 116.00 382.00 Z"/>
</g>
<g fill="#000000" fill-opacity="0.00" stroke="None">
<path d="
M 0.00 512.00 
L 512.00 512.00
L 512.00 0.00
L 0.00 0.00
L 0.00 512.00
M 349.00 72.00 
C 355.99 65.92 365.54 54.15 374.75 63.25 C 383.96 72.35 371.55 82.51 364.00 87.00
C 365.93 94.64 372.84 95.67 375.32 103.68 C 377.80 111.68 369.66 117.85 362.00 117.00 C 354.34 116.15 353.64 104.17 347.75 103.25 C 341.87 102.33 338.56 113.82 331.78 114.78 C 324.99 115.74 315.30 109.30 318.33 101.33 C 321.36 93.36 327.33 92.15 333.00 87.00
C 328.08 79.26 313.96 71.08 323.25 61.25 C 332.54 51.42 343.39 64.27 349.00 72.00
M 265.00 127.00 
C 282.16 145.28 287.93 170.62 286.00 196.00
C 300.35 193.55 309.30 216.00 293.00 219.00
C 304.16 230.83 289.72 242.89 277.98 237.02 C 266.23 231.16 262.36 247.87 251.77 252.77 C 241.18 257.67 232.02 264.92 218.99 265.99 C 205.96 267.06 187.76 266.88 174.00 267.00 C 160.24 267.12 143.00 266.70 129.99 266.01 C 116.99 265.32 107.46 257.87 96.77 253.23 C 86.08 248.59 82.42 231.62 70.93 236.93 C 59.43 242.23 43.60 231.67 55.00 219.00
C 39.07 215.24 47.49 193.21 62.00 196.00
C 60.01 170.65 66.16 145.48 83.00 127.00
C 80.09 111.66 82.42 102.02 87.32 87.32 C 92.23 72.63 108.96 77.68 121.02 79.98 C 133.09 82.27 138.90 96.52 151.00 97.00 C 163.10 97.48 186.02 98.73 198.00 97.00 C 209.98 95.27 215.63 82.45 228.03 80.02 C 240.42 77.60 256.17 73.13 260.92 88.08 C 265.68 103.02 268.19 111.94 265.00 127.00
M 397.00 116.00 
C 420.68 116.42 435.89 146.28 423.08 166.08 C 410.26 185.87 379.15 186.75 367.08 164.92 C 355.01 143.10 371.62 115.55 397.00 116.00
M 176.00 290.00 
C 199.49 293.82 209.80 324.79 194.75 342.75 C 179.70 360.71 149.73 358.30 139.70 335.31 C 129.66 312.31 150.47 285.85 176.00 290.00
M 344.00 291.00 
C 358.89 293.67 369.29 304.05 382.75 310.25 C 396.21 316.45 420.04 309.94 433.68 317.32 C 447.32 324.71 458.89 329.42 463.92 345.08 C 468.96 360.73 463.84 378.67 457.23 392.23 C 450.62 405.79 443.38 415.19 431.75 424.75 C 420.13 434.31 408.15 439.88 393.98 444.98 C 379.80 450.07 360.73 454.81 345.00 454.00 C 329.27 453.19 322.26 438.90 313.25 427.75 C 304.23 416.61 297.96 404.46 291.68 391.32 C 285.40 378.18 279.48 359.62 281.33 344.33 C 283.18 329.04 289.30 316.28 299.75 304.75 C 310.20 293.23 328.29 288.19 344.00 291.00
M 121.00 361.00 
C 143.76 365.08 153.11 397.99 137.25 414.25 C 121.38 430.50 91.57 429.16 83.02 404.98 C 74.48 380.79 94.04 356.17 121.00 361.00
M 216.00 390.00 
C 223.35 385.71 233.92 371.08 243.25 380.75 C 252.57 390.43 238.17 401.05 231.00 406.00
C 236.59 413.21 249.88 422.31 240.75 431.75 C 231.62 441.19 220.30 429.21 216.00 421.00
C 208.08 425.35 198.91 439.46 189.25 429.75 C 179.59 420.04 193.34 409.79 201.00 405.00
C 195.47 397.69 182.23 388.71 191.25 379.25 C 200.27 369.79 211.40 381.99 216.00 390.00 Z"/>
</g>
<g fill="#00384A" fill-opacity="0.94" stroke="None">
<path d="
M 349.00 72.00 
C 343.39 64.27 332.54 51.42 323.25 61.25 C 313.96 71.08 328.08 79.26 333.00 87.00
C 327.33 92.15 321.36 93.36 318.33 101.33 C 315.30 109.30 324.99 115.74 331.78 114.78 C 338.56 113.82 341.87 102.33 347.75 103.25 C 353.64 104.17 354.34 116.15 362.00 117.00 C 369.66 117.85 377.80 111.68 375.32 103.68 C 372.84 95.67 365.93 94.64 364.00 87.00
C 371.55 82.51 383.96 72.35 374.75 63.25 C 365.54 54.15 355.99 65.92 349.00 72.00 Z"/>
</g>
<g fill="#00384A" fill-opacity="0.97" stroke="None">
<path d="
M 265.00 127.00 
C 268.19 111.94 265.68 103.02 260.92 88.08 C 256.17 73.13 240.42 77.60 228.03 80.02 C 215.63 82.45 209.98 95.27 198.00 97.00 C 186.02 98.73 163.10 97.48 151.00 97.00 C 138.90 96.52 133.09 82.27 121.02 79.98 C 108.96 77.68 92.23 72.63 87.32 87.32 C 82.42 102.02 80.09 111.66 83.00 127.00
C 66.16 145.48 60.01 170.65 62.00 196.00
C 47.49 193.21 39.07 215.24 55.00 219.00
C 43.60 231.67 59.43 242.23 70.93 236.93 C 82.42 231.62 86.08 248.59 96.77 253.23 C 107.46 257.87 116.99 265.32 129.99 266.01 C 143.00 266.70 160.24 267.12 174.00 267.00 C 187.76 266.88 205.96 267.06 218.99 265.99 C 232.02 264.92 241.18 257.67 251.77 252.77 C 262.36 247.87 266.23 231.16 277.98 237.02 C 289.72 242.89 304.16 230.83 293.00 219.00
C 309.30 216.00 300.35 193.55 286.00 196.00
C 287.93 170.62 282.16 145.28 265.00 127.00
M 140.00 118.00 
C 148.07 119.45 157.78 118.00 166.00 118.00
C 171.33 118.00 176.67 118.00 182.00 118.00
C 190.22 118.00 199.93 119.45 208.00 118.00
C 220.15 114.16 220.41 103.84 234.08 100.08 C 247.74 96.31 246.30 115.29 244.07 126.07 C 241.85 136.85 253.57 145.74 258.00 155.00
C 263.13 165.72 267.02 176.97 265.00 190.00
C 254.64 187.00 248.05 202.79 257.00 208.00
C 247.49 209.32 242.94 220.25 249.00 228.00
C 229.69 249.81 199.91 245.76 173.00 246.00 C 146.09 246.24 116.95 248.88 98.00 227.00
C 105.07 219.69 97.65 208.72 89.00 209.00
C 101.14 205.86 94.86 186.88 83.00 190.00
C 82.42 177.69 83.47 164.93 90.00 155.00
C 93.09 148.76 93.87 144.07 100.25 139.25 C 106.63 134.43 103.45 126.68 103.00 120.00
C 102.38 116.53 102.45 113.40 103.00 110.00
C 103.78 95.66 110.54 98.71 120.08 102.92 C 129.61 107.13 130.66 115.05 140.00 118.00 Z"/>
</g>
<g fill="#F39E05" fill-opacity="1.00" stroke="None">
<path d="
M 103.00 110.00 
C 102.82 113.25 102.78 116.75 103.00 120.00
C 103.45 126.68 106.63 134.43 100.25 139.25 C 93.87 144.07 93.09 148.76 90.00 155.00
C 96.97 151.99 109.98 156.85 117.00 154.00 C 124.02 151.15 131.48 150.48 137.69 146.69 C 143.91 142.91 149.32 140.43 154.25 135.25 C 159.18 130.07 163.45 125.49 166.00 119.00
C 158.22 119.70 146.86 120.17 140.00 118.00
C 130.66 115.05 129.61 107.13 120.08 102.92 C 110.54 98.71 103.78 95.66 103.00 110.00 Z"/>
</g>
<g fill="#E54E17" fill-opacity="1.00" stroke="None">
<path d="
M 208.00 118.00 
C 201.08 120.19 189.77 119.70 182.00 119.00
C 184.24 125.23 189.07 130.34 193.75 135.25 C 198.44 140.16 204.21 142.95 210.23 146.77 C 216.25 150.59 224.41 150.68 231.22 153.78 C 238.03 156.87 251.18 152.06 258.00 155.00
C 253.57 145.74 241.85 136.85 244.07 126.07 C 246.30 115.29 247.74 96.31 234.08 100.08 C 220.41 103.84 220.15 114.16 208.00 118.00 Z"/>
</g>
<g fill="#555B31" fill-opacity="1.00" stroke="None">
<path d="
M 103.00 120.00 
C 102.78 116.75 102.82 113.25 103.00 110.00
C 102.45 113.40 102.38 116.53 103.00 120.00 Z"/>
</g>
<g fill="#00384A" fill-opacity="0.95" stroke="None">
<path d="
M 397.00 116.00 
C 371.62 115.55 355.01 143.10 367.08 164.92 C 379.15 186.75 410.26 185.87 423.08 166.08 C 435.89 146.28 420.68 116.42 397.00 116.00
M 398.00 138.00 
C 411.30 140.61 406.36 163.02 392.78 159.22 C 379.20 155.42 383.96 135.25 398.00 138.00 Z"/>
</g>
<g fill="#BC8712" fill-opacity="1.00" stroke="None">
<path d="
M 166.00 119.00 
C 166.17 118.57 166.00 118.00 166.00 118.00
C 157.78 118.00 148.07 119.45 140.00 118.00
C 146.86 120.17 158.22 119.70 166.00 119.00 Z"/>
</g>
<g fill="#FDFDFD" fill-opacity="1.00" stroke="None">
<path d="
M 166.00 119.00 
C 163.45 125.49 159.18 130.07 154.25 135.25 C 149.32 140.43 143.91 142.91 137.69 146.69 C 131.48 150.48 124.02 151.15 117.00 154.00 C 109.98 156.85 96.97 151.99 90.00 155.00
C 83.47 164.93 82.42 177.69 83.00 190.00
C 94.86 186.88 101.14 205.86 89.00 209.00
C 97.65 208.72 105.07 219.69 98.00 227.00
C 116.95 248.88 146.09 246.24 173.00 246.00 C 199.91 245.76 229.69 249.81 249.00 228.00
C 242.94 220.25 247.49 209.32 257.00 208.00
C 248.05 202.79 254.64 187.00 265.00 190.00
C 267.02 176.97 263.13 165.72 258.00 155.00
C 251.18 152.06 238.03 156.87 231.22 153.78 C 224.41 150.68 216.25 150.59 210.23 146.77 C 204.21 142.95 198.44 140.16 193.75 135.25 C 189.07 130.34 184.24 125.23 182.00 119.00
C 181.84 118.56 182.00 118.00 182.00 118.00
C 176.67 118.00 171.33 118.00 166.00 118.00
C 166.00 118.00 166.17 118.57 166.00 119.00
M 136.00 171.00 
C 143.16 172.31 147.40 185.28 140.25 189.25 C 133.09 193.22 125.18 195.16 117.00 196.00 C 108.81 196.84 106.02 180.23 112.75 177.75 C 119.48 175.27 128.56 169.64 136.00 171.00
M 216.00 171.00 
C 223.08 171.68 242.72 175.93 239.00 188.00 C 235.28 200.07 221.81 194.30 211.78 191.22 C 201.75 188.14 201.70 169.64 216.00 171.00
M 193.00 195.00 
C 196.37 200.08 187.79 207.03 184.30 210.30 C 180.82 213.57 168.02 213.59 164.31 210.69 C 160.59 207.80 151.69 199.98 155.00 195.00
C 156.90 192.14 170.45 194.01 174.00 194.00 C 177.55 193.99 191.13 192.18 193.00 195.00 Z"/>
</g>
<g fill="#AF4822" fill-opacity="1.00" stroke="None">
<path d="
M 182.00 119.00 
C 189.77 119.70 201.08 120.19 208.00 118.00
C 199.93 119.45 190.22 118.00 182.00 118.00
C 182.00 118.00 181.84 118.56 182.00 119.00 Z"/>
</g>
<g fill="#000000" fill-opacity="0.00" stroke="None">
<path d="
M 398.00 138.00 
C 383.96 135.25 379.20 155.42 392.78 159.22 C 406.36 163.02 411.30 140.61 398.00 138.00 Z"/>
</g>
<g fill="#043B4D" fill-opacity="1.00" stroke="None">
<path d="
M 136.00 171.00 
C 128.56 169.64 119.48 175.27 112.75 177.75 C 106.02 180.23 108.81 196.84 117.00 196.00 C 125.18 195.16 133.09 193.22 140.25 189.25 C 147.40 185.28 143.16 172.31 136.00 171.00 Z"/>
</g>
<g fill="#043B4C" fill-opacity="1.00" stroke="None">
<path d="
M 216.00 171.00 
C 201.70 169.64 201.75 188.14 211.78 191.22 C 221.81 194.30 235.28 200.07 239.00 188.00 C 242.72 175.93 223.08 171.68 216.00 171.00 Z"/>
</g>
<g fill="#88A2AB" fill-opacity="1.00" stroke="None">
<path d="
M 155.00 195.00 
C 167.67 195.00 180.33 195.00 193.00 195.00
C 191.13 192.18 177.55 193.99 174.00 194.00 C 170.45 194.01 156.90 192.14 155.00 195.00 Z"/>
</g>
<g fill="#02394B" fill-opacity="1.00" stroke="None">
<path d="
M 193.00 195.00 
C 180.33 195.00 167.67 195.00 155.00 195.00
C 151.69 199.98 160.59 207.80 164.31 210.69 C 168.02 213.59 180.82 213.57 184.30 210.30 C 187.79 207.03 196.37 200.08 193.00 195.00 Z"/>
</g>
<g fill="#00384A" fill-opacity="0.95" stroke="None">
<path d="
M 176.00 290.00 
C 150.47 285.85 129.66 312.31 139.70 335.31 C 149.73 358.30 179.70 360.71 194.75 342.75 C 209.80 324.79 199.49 293.82 176.00 290.00
M 170.00 311.00 
C 182.83 311.30 184.49 332.65 170.00 333.00 C 155.51 333.35 156.04 310.68 170.00 311.00 Z"/>
</g>
<g fill="#01384A" fill-opacity="0.97" stroke="None">
<path d="
M 344.00 291.00 
C 328.29 288.19 310.20 293.23 299.75 304.75 C 289.30 316.28 283.18 329.04 281.33 344.33 C 279.48 359.62 285.40 378.18 291.68 391.32 C 297.96 404.46 304.23 416.61 313.25 427.75 C 322.26 438.90 329.27 453.19 345.00 454.00 C 360.73 454.81 379.80 450.07 393.98 444.98 C 408.15 439.88 420.13 434.31 431.75 424.75 C 443.38 415.19 450.62 405.79 457.23 392.23 C 463.84 378.67 468.96 360.73 463.92 345.08 C 458.89 329.42 447.32 324.71 433.68 317.32 C 420.04 309.94 396.21 316.45 382.75 310.25 C 369.29 304.05 358.89 293.67 344.00 291.00
M 338.00 311.00 
C 351.84 312.98 360.70 322.72 372.75 329.25 C 384.81 335.78 406.71 331.00 420.02 334.98 C 433.34 338.96 447.14 347.07 444.22 362.22 C 441.31 377.38 437.11 387.38 427.75 398.75 C 418.39 410.11 409.49 414.57 396.92 420.92 C 384.35 427.27 370.40 430.67 355.98 432.98 C 341.55 435.29 333.90 420.11 326.25 409.75 C 318.59 399.40 313.23 387.44 307.69 375.31 C 302.16 363.17 299.93 344.68 306.31 332.31 C 312.68 319.93 322.68 308.81 338.00 311.00 Z"/>
</g>
<g fill="#000000" fill-opacity="0.00" stroke="None">
<path d="
M 170.00 311.00 
C 156.04 310.68 155.51 333.35 170.00 333.00 C 184.49 332.65 182.83 311.30 170.00 311.00 Z"/>
</g>
<g fill="#EFAFCF" fill-opacity="1.00" stroke="None">
<path d="
M 338.00 311.00 
C 322.68 308.81 312.68 319.93 306.31 332.31 C 299.93 344.68 302.16 363.17 307.69 375.31 C 313.23 387.44 318.59 399.40 326.25 409.75 C 333.90 420.11 341.55 435.29 355.98 432.98 C 370.40 430.67 384.35 427.27 396.92 420.92 C 409.49 414.57 418.39 410.11 427.75 398.75 C 437.11 387.38 441.31 377.38 444.22 362.22 C 447.14 347.07 433.34 338.96 420.02 334.98 C 406.71 331.00 384.81 335.78 372.75 329.25 C 360.70 322.72 351.84 312.98 338.00 311.00 Z"/>
</g>
<g fill="#00374A" fill-opacity="0.95" stroke="None">
<path d="
M 121.00 361.00 
C 94.04 356.17 74.48 380.79 83.02 404.98 C 91.57 429.16 121.38 430.50 137.25 414.25 C 153.11 397.99 143.76 365.08 121.00 361.00
M 116.00 382.00 
C 129.20 384.79 124.00 407.64 110.33 403.67 C 96.66 399.70 102.10 379.06 116.00 382.00 Z"/>
</g>
<g fill="#00374A" fill-opacity="0.94" stroke="None">
<path d="
M 216.00 390.00 
C 211.40 381.99 200.27 369.79 191.25 379.25 C 182.23 388.71 195.47 397.69 201.00 405.00
C 193.34 409.79 179.59 420.04 189.25 429.75 C 198.91 439.46 208.08 425.35 216.00 421.00
C 220.30 429.21 231.62 441.19 240.75 431.75 C 249.88 422.31 236.59 413.21 231.00 406.00
C 238.17 401.05 252.57 390.43 243.25 380.75 C 233.92 371.08 223.35 385.71 216.00 390.00 Z"/>
</g>
<g fill="#000000" fill-opacity="0.00" stroke="None">
<path d="
M 116.00 382.00 
C 102.10 379.06 96.66 399.70 110.33 403.67 C 124.00 407.64 129.20 384.79 116.00 382.00 Z"/>
</g>
</svg>