<svg xmlns="http://www.w3.org/2000/svg" xmlns:v="https://svgstorm.com"
viewBox = "0 0 512 576"
width="512"
height="576">
<g fill="None" fill-opacity="0.0" stroke="#000000" stroke-opacity="0.00" stroke-width="0.3"><path d="
M 0.00 531.00 
C 5.21 503.06 7.79 476.05 11.00 447.00 C 14.21 417.95 16.19 387.85 18.00 358.00 C 19.81 328.15 21.89 297.32 22.99 266.99 C 24.10 236.66 23.50 203.18 25.00 173.00 C 26.50 142.82 23.01 106.20 25.00 77.00 C 26.99 47.80 13.53 15.29 42.00 0.00
L 0.00 0.00
L 0.00 531.00 Z"/>
</g>
<g fill="None" fill-opacity="0.0" stroke="#4D2020" stroke-opacity="0.95" stroke-width="0.3"><path d="
M 0.00 531.00 
L 0.00 547.00
C 14.43 573.25 45.66 562.60 73.00 565.00 C 100.34 567.40 132.49 566.39 161.00 568.00 C 189.51 569.61 220.93 568.86 250.00 570.00 C 279.07 571.14 308.62 572.30 338.00 573.00 C 367.38 573.70 397.35 575.00 427.00 575.00
C 431.67 575.00 436.33 575.00 441.00 575.00
C 444.83 575.00 449.99 574.18 453.00 576.00
L 468.00 576.00
C 495.59 561.51 487.43 529.17 493.00 501.00 C 498.57 472.83 498.83 440.06 502.00 410.00 C 505.17 379.94 506.38 347.32 508.00 316.00 C 509.62 284.68 511.00 250.13 511.00 218.00
C 511.00 213.00 511.00 208.00 511.00 203.00
C 511.00 197.67 511.00 192.33 511.00 187.00
C 511.00 180.17 510.17 172.01 512.00 166.00
L 512.00 80.00
C 510.18 71.91 511.00 61.84 511.00 53.00
C 511.00 48.33 511.00 43.67 511.00 39.00
C 511.00 33.68 511.20 28.32 511.00 23.00
C 510.58 12.13 504.14 3.37 494.00 0.00
L 451.00 0.00
C 435.17 5.00 432.20 22.99 434.00 38.00
C 426.00 38.00 418.00 38.00 410.00 38.00
C 411.52 23.31 410.61 5.73 395.00 0.00
L 348.00 0.00
C 331.97 5.42 330.95 23.31 331.00 38.00
C 323.00 38.00 315.00 38.00 307.00 38.00
C 310.78 23.76 307.48 4.72 292.00 0.00
L 246.00 0.00
C 230.11 4.85 227.12 23.06 229.00 38.00
C 221.00 38.00 213.00 38.00 205.00 38.00
C 206.46 23.36 205.55 5.72 190.00 0.00
L 143.00 0.00
C 127.20 5.07 125.32 23.36 126.00 38.00
C 118.00 38.00 110.00 38.00 102.00 38.00
C 105.10 23.62 102.74 4.90 87.00 0.00
L 42.00 0.00
C 13.53 15.29 26.99 47.80 25.00 77.00 C 23.01 106.20 26.50 142.82 25.00 173.00 C 23.50 203.18 24.10 236.66 22.99 266.99 C 21.89 297.32 19.81 328.15 18.00 358.00 C 16.19 387.85 14.21 417.95 11.00 447.00 C 7.79 476.05 5.21 503.06 0.00 531.00
M 82.00 8.00 
C 93.74 10.43 95.00 18.98 95.00 30.00
C 95.00 33.39 94.27 37.70 95.00 41.00
C 99.03 51.91 111.62 43.10 122.00 46.00 C 132.38 48.90 136.19 34.97 134.00 26.00 C 131.81 17.03 140.79 9.49 148.00 8.00
C 158.24 5.88 174.87 5.49 185.00 8.00
C 193.03 9.99 197.55 16.38 197.00 24.00 C 196.45 31.62 194.43 45.66 203.03 45.97 C 211.62 46.29 222.75 48.00 231.00 46.00 C 239.25 44.00 237.01 31.39 237.00 24.00 C 236.99 16.61 242.29 9.91 250.00 8.00
C 260.20 5.47 276.83 5.89 287.00 8.00
C 294.67 9.59 299.75 15.79 300.00 23.00 C 300.25 30.21 296.65 45.00 305.08 45.92 C 313.51 46.85 325.60 47.52 333.67 45.67 C 341.74 43.82 339.18 31.50 339.98 23.98 C 340.77 16.45 344.40 10.13 353.00 8.00
C 362.91 5.55 380.16 5.56 390.00 8.00
C 396.93 9.72 403.02 16.30 402.99 23.01 C 402.96 29.72 398.29 44.36 407.08 45.92 C 415.87 47.48 427.16 47.21 436.00 46.00 C 444.84 44.79 441.64 30.47 442.00 23.00 C 442.36 15.53 448.28 9.60 456.00 8.00
C 465.50 6.03 479.57 6.05 489.00 8.00
C 505.61 11.44 504.34 26.00 504.00 41.00 C 503.66 56.00 504.00 73.75 504.00 89.00
C 506.25 112.21 506.24 139.86 504.00 163.00
C 504.00 180.33 504.00 197.67 504.00 215.00
C 504.00 218.75 503.29 222.99 503.00 226.00
C 503.00 248.74 502.02 270.74 501.07 293.07 C 500.12 315.41 499.38 337.92 498.00 360.00 C 496.62 382.08 494.82 402.00 493.02 424.02 C 491.22 446.05 489.27 465.60 487.00 488.00 C 484.74 510.40 481.28 525.04 479.01 549.01 C 476.73 572.98 449.16 568.00 430.00 568.00
C 425.92 568.00 421.34 567.32 418.00 567.00
C 410.33 567.00 402.67 567.00 395.00 567.00
C 391.90 567.00 388.36 566.23 386.00 566.00
C 295.72 566.00 206.22 559.00 116.00 559.00
C 112.90 559.00 109.36 558.23 107.00 558.00
C 88.19 558.00 64.24 555.86 46.00 557.00 C 27.76 558.14 4.19 554.94 7.99 533.99 C 11.80 513.05 12.39 498.91 15.00 479.00 C 17.61 459.09 19.51 441.79 21.00 422.00 C 22.49 402.21 24.82 383.82 25.99 363.99 C 27.17 344.17 27.67 324.93 29.00 305.00 C 30.33 285.07 29.89 264.16 31.00 244.00 C 32.11 223.84 31.26 203.42 32.00 183.00 C 32.74 162.58 33.26 141.84 33.00 121.00 C 32.74 100.16 33.00 78.88 33.00 58.00
C 32.51 52.96 32.00 46.73 32.00 41.00
C 32.00 26.46 30.45 11.67 47.00 8.00
C 56.91 5.80 72.15 5.96 82.00 8.00 Z"/>
</g>
<g fill="None" fill-opacity="0.0" stroke="#000000" stroke-opacity="0.00" stroke-width="0.3"><path d="
M 143.00 0.00 
L 87.00 0.00
C 102.74 4.90 105.10 23.62 102.00 38.00
C 110.00 38.00 118.00 38.00 126.00 38.00
C 125.32 23.36 127.20 5.07 143.00 0.00 Z"/>
</g>
<g fill="None" fill-opacity="0.0" stroke="#000000" stroke-opacity="0.00" stroke-width="0.3"><path d="
M 246.00 0.00 
L 190.00 0.00
C 205.55 5.72 206.46 23.36 205.00 38.00
C 213.00 38.00 221.00 38.00 229.00 38.00
C 227.12 23.06 230.11 4.85 246.00 0.00 Z"/>
</g>
<g fill="None" fill-opacity="0.0" stroke="#000000" stroke-opacity="0.00" stroke-width="0.3"><path d="
M 348.00 0.00 
L 292.00 0.00
C 307.48 4.72 310.78 23.76 307.00 38.00
C 315.00 38.00 323.00 38.00 331.00 38.00
C 330.95 23.31 331.97 5.42 348.00 0.00 Z"/>
</g>
<g fill="None" fill-opacity="0.0" stroke="#000000" stroke-opacity="0.00" stroke-width="0.3"><path d="
M 451.00 0.00 
L 395.00 0.00
C 410.61 5.73 411.52 23.31 410.00 38.00
C 418.00 38.00 426.00 38.00 434.00 38.00
C 432.20 22.99 435.17 5.00 451.00 0.00 Z"/>
</g>
<g fill="None" fill-opacity="0.0" stroke="#000000" stroke-opacity="0.00" stroke-width="0.3"><path d="
M 511.00 23.00 
C 511.00 22.98 512.00 23.00 512.00 23.00
L 512.00 0.00
L 494.00 0.00
C 504.14 3.37 510.58 12.13 511.00 23.00 Z"/>
</g>
<g fill="None" fill-opacity="0.0" stroke="#A9908C" stroke-opacity="1.00" stroke-width="0.3"><path d="
M 47.00 8.00 
C 57.94 6.88 71.04 7.00 82.00 8.00
C 72.15 5.96 56.91 5.80 47.00 8.00 Z"/>
</g>
<g fill="None" fill-opacity="0.0" stroke="#A9918D" stroke-opacity="1.00" stroke-width="0.3"><path d="
M 148.00 8.00 
C 159.43 6.96 173.61 6.59 185.00 8.00
C 174.87 5.49 158.24 5.88 148.00 8.00 Z"/>
</g>
<g fill="None" fill-opacity="0.0" stroke="#A9918C" stroke-opacity="1.00" stroke-width="0.3"><path d="
M 250.00 8.00 
C 261.39 6.59 275.57 6.96 287.00 8.00
C 276.83 5.89 260.20 5.47 250.00 8.00 Z"/>
</g>
<g fill="None" fill-opacity="0.0" stroke="#A9918C" stroke-opacity="1.00" stroke-width="0.3"><path d="
M 353.00 8.00 
C 364.14 6.62 378.86 6.62 390.00 8.00
C 380.16 5.56 362.91 5.55 353.00 8.00 Z"/>
</g>
<g fill="None" fill-opacity="0.0" stroke="#AA928E" stroke-opacity="1.00" stroke-width="0.3"><path d="
M 456.00 8.00 
C 466.40 7.05 478.60 7.05 489.00 8.00
C 479.57 6.05 465.50 6.03 456.00 8.00 Z"/>
</g>
<g fill="None" fill-opacity="0.0" stroke="#FEF9F0" stroke-opacity="1.00" stroke-width="0.3"><path d="
M 32.00 41.00 
C 32.49 46.04 33.00 52.27 33.00 58.00
C 33.00 78.88 32.74 100.16 33.00 121.00 C 33.26 141.84 32.74 162.58 32.00 183.00 C 31.26 203.42 32.11 223.84 31.00 244.00 C 29.89 264.16 30.33 285.07 29.00 305.00 C 27.67 324.93 27.17 344.17 25.99 363.99 C 24.82 383.82 22.49 402.21 21.00 422.00 C 19.51 441.79 17.61 459.09 15.00 479.00 C 12.39 498.91 11.80 513.05 7.99 533.99 C 4.19 554.94 27.76 558.14 46.00 557.00 C 64.24 555.86 88.19 558.00 107.00 558.00
C 110.10 558.00 113.64 558.77 116.00 559.00
C 206.22 559.00 295.72 566.00 386.00 566.00
C 389.10 566.00 392.64 566.77 395.00 567.00
C 402.67 567.00 410.33 567.00 418.00 567.00
C 422.08 567.00 426.66 567.68 430.00 568.00
C 449.16 568.00 476.73 572.98 479.01 549.01 C 481.28 525.04 484.74 510.40 487.00 488.00 C 489.27 465.60 491.22 446.05 493.02 424.02 C 494.82 402.00 496.62 382.08 498.00 360.00 C 499.38 337.92 500.12 315.41 501.07 293.07 C 502.02 270.74 503.00 248.74 503.00 226.00
C 503.00 222.25 503.71 218.01 504.00 215.00
C 504.00 197.67 504.00 180.33 504.00 163.00
C 504.00 138.33 504.00 113.67 504.00 89.00
C 504.00 73.75 503.66 56.00 504.00 41.00 C 504.34 26.00 505.61 11.44 489.00 8.00
C 478.60 7.05 466.40 7.05 456.00 8.00
C 448.28 9.60 442.36 15.53 442.00 23.00 C 441.64 30.47 444.84 44.79 436.00 46.00 C 427.16 47.21 415.87 47.48 407.08 45.92 C 398.29 44.36 402.96 29.72 402.99 23.01 C 403.02 16.30 396.93 9.72 390.00 8.00
C 378.86 6.62 364.14 6.62 353.00 8.00
C 344.40 10.13 340.77 16.45 339.98 23.98 C 339.18 31.50 341.74 43.82 333.67 45.67 C 325.60 47.52 313.51 46.85 305.08 45.92 C 296.65 45.00 300.25 30.21 300.00 23.00 C 299.75 15.79 294.67 9.59 287.00 8.00
C 275.57 6.96 261.39 6.59 250.00 8.00
C 242.29 9.91 236.99 16.61 237.00 24.00 C 237.01 31.39 239.25 44.00 231.00 46.00 C 222.75 48.00 211.62 46.29 203.03 45.97 C 194.43 45.66 196.45 31.62 197.00 24.00 C 197.55 16.38 193.03 9.99 185.00 8.00
C 173.61 6.59 159.43 6.96 148.00 8.00
C 140.79 9.49 131.81 17.03 134.00 26.00 C 136.19 34.97 132.38 48.90 122.00 46.00 C 111.62 43.10 99.03 51.91 95.00 41.00
C 93.60 37.20 94.65 33.57 95.00 30.00
C 95.00 18.98 93.74 10.43 82.00 8.00
C 71.04 7.00 57.94 6.88 47.00 8.00
C 30.45 11.67 32.00 26.46 32.00 41.00
M 156.00 116.00 
C 165.75 119.60 152.56 127.45 146.00 125.00 C 139.44 122.55 128.00 125.37 121.00 125.00 C 114.00 124.63 101.45 123.76 95.00 125.00 C 88.55 126.24 74.28 123.29 80.26 117.26 C 86.24 111.23 97.72 117.47 105.00 116.00 C 112.28 114.53 122.54 115.50 130.00 116.00 C 137.46 116.50 149.05 113.43 156.00 116.00
M 345.00 116.00 
C 352.85 120.05 341.41 127.55 335.00 125.00 C 328.59 122.45 318.23 126.21 311.00 125.00 C 303.77 123.79 294.55 125.68 287.00 125.00 C 279.45 124.32 271.69 125.56 264.00 125.00 C 256.31 124.44 247.73 125.80 240.00 125.00 C 232.27 124.20 223.58 126.58 216.00 125.00 C 208.42 123.42 199.40 128.57 192.33 124.67 C 185.26 120.77 195.14 113.73 202.00 116.00 C 208.86 118.27 218.57 114.92 226.00 116.00 C 233.43 117.08 242.39 115.39 250.00 116.00 C 257.61 116.61 265.35 115.48 273.00 116.00 C 280.65 116.52 289.43 115.24 297.00 116.00 C 304.57 116.76 313.80 114.49 321.00 116.00 C 328.20 117.51 338.70 112.74 345.00 116.00
M 447.00 116.00 
C 456.93 119.01 445.91 127.39 439.00 125.00 C 432.09 122.61 421.07 125.51 414.00 125.00 C 406.93 124.49 394.31 124.16 388.00 125.00 C 381.69 125.84 366.80 124.41 371.78 117.78 C 376.76 111.15 388.99 117.46 396.00 116.00 C 403.01 114.54 413.55 115.65 421.00 116.00 C 428.45 116.35 439.83 113.82 447.00 116.00
M 391.00 263.00 
C 391.37 266.77 391.36 271.29 391.00 275.00
C 391.00 299.44 376.72 324.42 361.25 342.25 C 345.78 360.08 328.63 376.49 309.30 388.30 C 289.98 400.12 264.32 421.44 241.32 411.68 C 218.33 401.92 201.33 388.85 182.25 372.75 C 163.17 356.66 150.45 340.17 139.08 317.92 C 127.70 295.68 126.46 260.69 139.75 238.75 C 153.04 216.82 177.24 201.58 203.00 204.00 C 228.76 206.42 245.66 225.10 261.00 244.00
C 280.59 224.39 305.05 201.63 335.00 204.00 C 364.95 206.37 390.40 233.15 391.00 263.00
M 109.00 213.00 
C 117.30 216.06 107.77 225.49 101.00 222.00 C 94.23 218.51 85.10 225.54 78.00 222.00 C 70.90 218.46 79.38 210.50 86.00 213.00 C 92.62 215.50 102.33 210.54 109.00 213.00
M 444.00 213.00 
C 452.72 216.22 441.90 225.74 435.00 222.00 C 428.10 218.27 418.59 225.94 411.33 221.67 C 404.07 217.40 413.12 210.57 420.00 213.00 C 426.88 215.43 437.10 210.45 444.00 213.00
M 106.00 310.00 
C 113.58 313.09 104.84 322.31 98.00 319.00 C 91.16 315.69 82.79 322.33 75.33 318.67 C 67.87 315.01 75.84 307.36 83.00 310.00 C 90.16 312.64 99.06 307.17 106.00 310.00
M 442.00 310.00 
C 447.77 312.98 441.78 321.58 436.00 319.00 C 430.22 316.42 422.15 321.72 416.33 318.67 C 410.51 315.62 416.24 307.50 422.00 310.00 C 427.76 312.50 436.51 307.16 442.00 310.00
M 177.00 407.00 
C 185.96 410.31 174.86 418.84 168.00 416.00 C 161.14 413.16 151.48 417.54 144.00 416.00 C 136.52 414.46 127.75 417.26 120.00 416.00 C 112.25 414.74 103.85 417.83 96.00 416.00 C 88.15 414.17 79.84 419.62 72.00 416.00 C 64.16 412.38 73.68 404.31 81.00 407.00 C 88.32 409.69 97.38 405.60 105.00 407.00 C 112.62 408.40 121.32 405.96 129.00 407.00 C 136.68 408.04 145.47 405.63 153.00 407.00 C 160.53 408.37 169.94 404.39 177.00 407.00
M 439.00 407.00 
C 447.00 411.14 434.54 418.65 428.00 416.00 C 421.46 413.35 410.46 417.43 403.00 416.00 C 395.54 414.57 385.80 417.17 378.00 416.00 C 370.20 414.83 360.79 417.69 353.00 416.00 C 345.21 414.31 335.91 419.70 328.78 415.22 C 321.64 410.74 331.91 404.94 339.00 407.00 C 346.09 409.06 356.35 405.83 364.00 407.00 C 371.65 408.17 381.26 405.93 389.00 407.00 C 396.74 408.07 406.55 405.33 414.00 407.00 C 421.45 408.67 432.44 403.61 439.00 407.00
M 92.00 482.00 
C 98.41 482.62 108.11 482.99 115.00 483.00 C 121.89 483.01 131.85 483.12 138.00 484.00 C 144.15 484.88 156.62 479.92 158.92 487.08 C 161.21 494.24 147.12 493.49 141.00 493.00 C 134.88 492.51 124.29 491.22 117.00 492.00 C 109.71 492.78 101.69 490.32 94.00 491.00 C 86.31 491.68 78.08 489.48 70.00 491.00 C 61.92 492.52 57.61 481.67 67.00 482.00 C 76.40 482.34 82.93 481.12 92.00 482.00
M 200.00 485.00 
C 206.83 485.66 215.58 485.61 223.00 486.00 C 230.42 486.39 238.47 486.84 246.00 487.00 C 253.53 487.16 261.75 486.88 269.00 488.00 C 276.25 489.12 285.65 483.75 291.25 489.75 C 296.84 495.76 283.36 498.57 277.00 497.00 C 270.64 495.43 261.17 496.52 254.00 496.00 C 246.83 495.48 238.19 496.61 231.00 495.00 C 223.81 493.39 213.97 497.78 207.00 495.00 C 200.03 492.22 191.62 498.72 185.75 492.25 C 179.89 485.77 194.96 484.51 200.00 485.00
M 365.00 490.00 
C 374.10 490.88 382.97 491.65 393.00 491.00 C 403.03 490.35 409.93 494.63 421.00 492.00 C 432.07 489.37 436.76 500.95 425.00 501.00 C 413.24 501.05 407.90 498.76 397.00 500.00 C 386.10 501.24 379.29 498.32 368.99 499.01 C 358.69 499.70 351.51 496.54 341.00 498.00 C 330.49 499.46 323.40 490.32 336.00 490.00 C 348.60 489.68 353.27 488.86 365.00 490.00 Z"/>
</g>
<g fill="None" fill-opacity="0.0" stroke="#4C1E1E" stroke-opacity="0.15" stroke-width="0.3"><path d="
M 511.00 39.00 
C 511.00 38.96 512.00 39.00 512.00 39.00
L 512.00 23.00
C 512.00 23.00 511.00 22.98 511.00 23.00
C 511.20 28.32 511.00 33.68 511.00 39.00 Z"/>
</g>
<g fill="None" fill-opacity="0.0" stroke="#9C807C" stroke-opacity="1.00" stroke-width="0.3"><path d="
M 95.00 41.00 
C 94.27 37.70 95.00 33.39 95.00 30.00
C 94.65 33.57 93.60 37.20 95.00 41.00 Z"/>
</g>
<g fill="None" fill-opacity="0.0" stroke="#4B1F1F" stroke-opacity="0.38" stroke-width="0.3"><path d="
M 511.00 53.00 
C 511.00 52.96 512.00 53.00 512.00 53.00
L 512.00 39.00
C 512.00 39.00 511.00 38.96 511.00 39.00
C 511.00 43.67 511.00 48.33 511.00 53.00 Z"/>
</g>
<g fill="None" fill-opacity="0.0" stroke="#987C78" stroke-opacity="1.00" stroke-width="0.3"><path d="
M 33.00 58.00 
C 33.00 52.27 32.49 46.04 32.00 41.00
C 32.00 46.73 32.51 52.96 33.00 58.00 Z"/>
</g>
<g fill="None" fill-opacity="0.0" stroke="#4C1E1E" stroke-opacity="0.64" stroke-width="0.3"><path d="
M 512.00 80.00 
L 512.00 53.00
C 512.00 53.00 511.00 52.96 511.00 53.00
C 511.00 61.84 510.18 71.91 512.00 80.00 Z"/>
</g>
<g fill="None" fill-opacity="0.0" stroke="#9F8480" stroke-opacity="1.00" stroke-width="0.3"><path d="
M 504.00 163.00 
C 506.24 139.86 506.25 112.21 504.00 89.00
C 504.00 113.67 504.00 138.33 504.00 163.00 Z"/>
</g>
<g fill="None" fill-opacity="0.0" stroke="#8BB6D7" stroke-opacity="1.00" stroke-width="0.3"><path d="
M 156.00 116.00 
C 149.05 113.43 137.46 116.50 130.00 116.00 C 122.54 115.50 112.28 114.53 105.00 116.00 C 97.72 117.47 86.24 111.23 80.26 117.26 C 74.28 123.29 88.55 126.24 95.00 125.00 C 101.45 123.76 114.00 124.63 121.00 125.00 C 128.00 125.37 139.44 122.55 146.00 125.00 C 152.56 127.45 165.75 119.60 156.00 116.00 Z"/>
</g>
<g fill="None" fill-opacity="0.0" stroke="#8BB6D7" stroke-opacity="1.00" stroke-width="0.3"><path d="
M 345.00 116.00 
C 338.70 112.74 328.20 117.51 321.00 116.00 C 313.80 114.49 304.57 116.76 297.00 116.00 C 289.43 115.24 280.65 116.52 273.00 116.00 C 265.35 115.48 257.61 116.61 250.00 116.00 C 242.39 115.39 233.43 117.08 226.00 116.00 C 218.57 114.92 208.86 118.27 202.00 116.00 C 195.14 113.73 185.26 120.77 192.33 124.67 C 199.40 128.57 208.42 123.42 216.00 125.00 C 223.58 126.58 232.27 124.20 240.00 125.00 C 247.73 125.80 256.31 124.44 264.00 125.00 C 271.69 125.56 279.45 124.32 287.00 125.00 C 294.55 125.68 303.77 123.79 311.00 125.00 C 318.23 126.21 328.59 122.45 335.00 125.00 C 341.41 127.55 352.85 120.05 345.00 116.00 Z"/>
</g>
<g fill="None" fill-opacity="0.0" stroke="#8BB6D7" stroke-opacity="1.00" stroke-width="0.3"><path d="
M 447.00 116.00 
C 439.83 113.82 428.45 116.35 421.00 116.00 C 413.55 115.65 403.01 114.54 396.00 116.00 C 388.99 117.46 376.76 111.15 371.78 117.78 C 366.80 124.41 381.69 125.84 388.00 125.00 C 394.31 124.16 406.93 124.49 414.00 125.00 C 421.07 125.51 432.09 122.61 439.00 125.00 C 445.91 127.39 456.93 119.01 447.00 116.00 Z"/>
</g>
<g fill="None" fill-opacity="0.0" stroke="#4B1F1F" stroke-opacity="0.68" stroke-width="0.3"><path d="
M 511.00 187.00 
C 511.00 186.96 512.00 187.00 512.00 187.00
L 512.00 166.00
C 510.17 172.01 511.00 180.17 511.00 187.00 Z"/>
</g>
<g fill="None" fill-opacity="0.0" stroke="#4C1E1E" stroke-opacity="0.42" stroke-width="0.3"><path d="
M 511.00 203.00 
C 511.00 202.96 512.00 203.00 512.00 203.00
L 512.00 187.00
C 512.00 187.00 511.00 186.96 511.00 187.00
C 511.00 192.33 511.00 197.67 511.00 203.00 Z"/>
</g>
<g fill="None" fill-opacity="0.0" stroke="#4B1D1D" stroke-opacity="0.17" stroke-width="0.3"><path d="
M 511.00 218.00 
C 511.00 217.96 512.00 218.00 512.00 218.00
L 512.00 203.00
C 512.00 203.00 511.00 202.96 511.00 203.00
C 511.00 208.00 511.00 213.00 511.00 218.00 Z"/>
</g>
<g fill="None" fill-opacity="0.0" stroke="#FF2780" stroke-opacity="1.00" stroke-width="0.3"><path d="
M 391.00 275.00 
C 391.00 271.00 391.00 267.00 391.00 263.00
C 390.40 233.15 364.95 206.37 335.00 204.00 C 305.05 201.63 280.59 224.39 261.00 244.00
C 245.66 225.10 228.76 206.42 203.00 204.00 C 177.24 201.58 153.04 216.82 139.75 238.75 C 126.46 260.69 127.70 295.68 139.08 317.92 C 150.45 340.17 163.17 356.66 182.25 372.75 C 201.33 388.85 218.33 401.92 241.32 411.68 C 264.32 421.44 289.98 400.12 309.30 388.30 C 328.63 376.49 345.78 360.08 361.25 342.25 C 376.72 324.42 391.00 299.44 391.00 275.00 Z"/>
</g>
<g fill="None" fill-opacity="0.0" stroke="#8CB7D7" stroke-opacity="1.00" stroke-width="0.3"><path d="
M 109.00 213.00 
C 102.33 210.54 92.62 215.50 86.00 213.00 C 79.38 210.50 70.90 218.46 78.00 222.00 C 85.10 225.54 94.23 218.51 101.00 222.00 C 107.77 225.49 117.30 216.06 109.00 213.00 Z"/>
</g>
<g fill="None" fill-opacity="0.0" stroke="#8BB6D7" stroke-opacity="1.00" stroke-width="0.3"><path d="
M 444.00 213.00 
C 437.10 210.45 426.88 215.43 420.00 213.00 C 413.12 210.57 404.07 217.40 411.33 221.67 C 418.59 225.94 428.10 218.27 435.00 222.00 C 441.90 225.74 452.72 216.22 444.00 213.00 Z"/>
</g>
<g fill="None" fill-opacity="0.0" stroke="#A78E8A" stroke-opacity="1.00" stroke-width="0.3"><path d="
M 503.00 226.00 
C 503.29 222.99 504.00 218.75 504.00 215.00
C 503.71 218.01 503.00 222.25 503.00 226.00 Z"/>
</g>
<g fill="None" fill-opacity="0.0" stroke="#000000" stroke-opacity="0.00" stroke-width="0.3"><path d="
M 468.00 576.00 
L 512.00 576.00
L 512.00 218.00
C 512.00 218.00 511.00 217.96 511.00 218.00
C 511.00 250.13 509.62 284.68 508.00 316.00 C 506.38 347.32 505.17 379.94 502.00 410.00 C 498.83 440.06 498.57 472.83 493.00 501.00 C 487.43 529.17 495.59 561.51 468.00 576.00 Z"/>
</g>
<g fill="None" fill-opacity="0.0" stroke="#FF9EC0" stroke-opacity="1.00" stroke-width="0.3"><path d="
M 391.00 275.00 
C 391.36 271.29 391.37 266.77 391.00 263.00
C 391.00 267.00 391.00 271.00 391.00 275.00 Z"/>
</g>
<g fill="None" fill-opacity="0.0" stroke="#8CB7D7" stroke-opacity="1.00" stroke-width="0.3"><path d="
M 106.00 310.00 
C 99.06 307.17 90.16 312.64 83.00 310.00 C 75.84 307.36 67.87 315.01 75.33 318.67 C 82.79 322.33 91.16 315.69 98.00 319.00 C 104.84 322.31 113.58 313.09 106.00 310.00 Z"/>
</g>
<g fill="None" fill-opacity="0.0" stroke="#8CB7D7" stroke-opacity="1.00" stroke-width="0.3"><path d="
M 442.00 310.00 
C 436.51 307.16 427.76 312.50 422.00 310.00 C 416.24 307.50 410.51 315.62 416.33 318.67 C 422.15 321.72 430.22 316.42 436.00 319.00 C 441.78 321.58 447.77 312.98 442.00 310.00 Z"/>
</g>
<g fill="None" fill-opacity="0.0" stroke="#8BB6D7" stroke-opacity="1.00" stroke-width="0.3"><path d="
M 177.00 407.00 
C 169.94 404.39 160.53 408.37 153.00 407.00 C 145.47 405.63 136.68 408.04 129.00 407.00 C 121.32 405.96 112.62 408.40 105.00 407.00 C 97.38 405.60 88.32 409.69 81.00 407.00 C 73.68 404.31 64.16 412.38 72.00 416.00 C 79.84 419.62 88.15 414.17 96.00 416.00 C 103.85 417.83 112.25 414.74 120.00 416.00 C 127.75 417.26 136.52 414.46 144.00 416.00 C 151.48 417.54 161.14 413.16 168.00 416.00 C 174.86 418.84 185.96 410.31 177.00 407.00 Z"/>
</g>
<g fill="None" fill-opacity="0.0" stroke="#8BB6D7" stroke-opacity="1.00" stroke-width="0.3"><path d="
M 439.00 407.00 
C 432.44 403.61 421.45 408.67 414.00 407.00 C 406.55 405.33 396.74 408.07 389.00 407.00 C 381.26 405.93 371.65 408.17 364.00 407.00 C 356.35 405.83 346.09 409.06 339.00 407.00 C 331.91 404.94 321.64 410.74 328.78 415.22 C 335.91 419.70 345.21 414.31 353.00 416.00 C 360.79 417.69 370.20 414.83 378.00 416.00 C 385.80 417.17 395.54 414.57 403.00 416.00 C 410.46 417.43 421.46 413.35 428.00 416.00 C 434.54 418.65 447.00 411.14 439.00 407.00 Z"/>
</g>
<g fill="None" fill-opacity="0.0" stroke="#8AB6D7" stroke-opacity="1.00" stroke-width="0.3"><path d="
M 92.00 482.00 
C 82.93 481.12 76.40 482.34 67.00 482.00 C 57.61 481.67 61.92 492.52 70.00 491.00 C 78.08 489.48 86.31 491.68 94.00 491.00 C 101.69 490.32 109.71 492.78 117.00 492.00 C 124.29 491.22 134.88 492.51 141.00 493.00 C 147.12 493.49 161.21 494.24 158.92 487.08 C 156.62 479.92 144.15 484.88 138.00 484.00 C 131.85 483.12 121.89 483.01 115.00 483.00 C 108.11 482.99 98.41 482.62 92.00 482.00 Z"/>
</g>
<g fill="None" fill-opacity="0.0" stroke="#8AB6D7" stroke-opacity="1.00" stroke-width="0.3"><path d="
M 200.00 485.00 
C 194.96 484.51 179.89 485.77 185.75 492.25 C 191.62 498.72 200.03 492.22 207.00 495.00 C 213.97 497.78 223.81 493.39 231.00 495.00 C 238.19 496.61 246.83 495.48 254.00 496.00 C 261.17 496.52 270.64 495.43 277.00 497.00 C 283.36 498.57 296.84 495.76 291.25 489.75 C 285.65 483.75 276.25 489.12 269.00 488.00 C 261.75 486.88 253.53 487.16 246.00 487.00 C 238.47 486.84 230.42 486.39 223.00 486.00 C 215.58 485.61 206.83 485.66 200.00 485.00 Z"/>
</g>
<g fill="None" fill-opacity="0.0" stroke="#89B5D6" stroke-opacity="1.00" stroke-width="0.3"><path d="
M 365.00 490.00 
C 353.27 488.86 348.60 489.68 336.00 490.00 C 323.40 490.32 330.49 499.46 341.00 498.00 C 351.51 496.54 358.69 499.70 368.99 499.01 C 379.29 498.32 386.10 501.24 397.00 500.00 C 407.90 498.76 413.24 501.05 425.00 501.00 C 436.76 500.95 432.07 489.37 421.00 492.00 C 409.93 494.63 403.03 490.35 393.00 491.00 C 382.97 491.65 374.10 490.88 365.00 490.00 Z"/>
</g>
<g fill="None" fill-opacity="0.0" stroke="#000000" stroke-opacity="0.00" stroke-width="0.3"><path d="
M 0.00 576.00 
L 427.00 576.00
C 427.00 575.50 427.00 575.00 427.00 575.00
C 397.35 575.00 367.38 573.70 338.00 573.00 C 308.62 572.30 279.07 571.14 250.00 570.00 C 220.93 568.86 189.51 569.61 161.00 568.00 C 132.49 566.39 100.34 567.40 73.00 565.00 C 45.66 562.60 14.43 573.25 0.00 547.00
L 0.00 576.00 Z"/>
</g>
<g fill="None" fill-opacity="0.0" stroke="#967976" stroke-opacity="1.00" stroke-width="0.3"><path d="
M 116.00 559.00 
C 113.64 558.77 110.10 558.00 107.00 558.00
C 109.36 558.23 112.90 559.00 116.00 559.00 Z"/>
</g>
<g fill="None" fill-opacity="0.0" stroke="#A58C88" stroke-opacity="1.00" stroke-width="0.3"><path d="
M 395.00 567.00 
C 392.64 566.77 389.10 566.00 386.00 566.00
C 388.36 566.23 391.90 567.00 395.00 567.00 Z"/>
</g>
<g fill="None" fill-opacity="0.0" stroke="#A08581" stroke-opacity="1.00" stroke-width="0.3"><path d="
M 430.00 568.00 
C 426.66 567.68 422.08 567.00 418.00 567.00
C 421.34 567.32 425.92 568.00 430.00 568.00 Z"/>
</g>
<g fill="None" fill-opacity="0.0" stroke="#4A1E1D" stroke-opacity="0.23" stroke-width="0.3"><path d="
M 427.00 576.00 
L 441.00 576.00
C 441.00 575.50 441.00 575.00 441.00 575.00
C 436.33 575.00 431.67 575.00 427.00 575.00
C 427.00 575.00 427.00 575.50 427.00 576.00 Z"/>
</g>
<g fill="None" fill-opacity="0.0" stroke="#4C1F1F" stroke-opacity="0.60" stroke-width="0.3"><path d="
M 441.00 576.00 
L 453.00 576.00
C 449.99 574.18 444.83 575.00 441.00 575.00
C 441.00 575.00 441.00 575.50 441.00 576.00 Z"/>
</g>
<g fill="#000000" fill-opacity="0.00" stroke="None">
<path d="
M 0.00 531.00 
C 5.21 503.06 7.79 476.05 11.00 447.00 C 14.21 417.95 16.19 387.85 18.00 358.00 C 19.81 328.15 21.89 297.32 22.99 266.99 C 24.10 236.66 23.50 203.18 25.00 173.00 C 26.50 142.82 23.01 106.20 25.00 77.00 C 26.99 47.80 13.53 15.29 42.00 0.00
L 0.00 0.00
L 0.00 531.00 Z"/>
</g>
<g fill="#4D2020" fill-opacity="0.95" stroke="None">
<path d="
M 0.00 531.00 
L 0.00 547.00
C 14.43 573.25 45.66 562.60 73.00 565.00 C 100.34 567.40 132.49 566.39 161.00 568.00 C 189.51 569.61 220.93 568.86 250.00 570.00 C 279.07 571.14 308.62 572.30 338.00 573.00 C 367.38 573.70 397.35 575.00 427.00 575.00
C 431.67 575.00 436.33 575.00 441.00 575.00
C 444.83 575.00 449.99 574.18 453.00 576.00
L 468.00 576.00
C 495.59 561.51 487.43 529.17 493.00 501.00 C 498.57 472.83 498.83 440.06 502.00 410.00 C 505.17 379.94 506.38 347.32 508.00 316.00 C 509.62 284.68 511.00 250.13 511.00 218.00
C 511.00 213.00 511.00 208.00 511.00 203.00
C 511.00 197.67 511.00 192.33 511.00 187.00
C 511.00 180.17 510.17 172.01 512.00 166.00
L 512.00 80.00
C 510.18 71.91 511.00 61.84 511.00 53.00
C 511.00 48.33 511.00 43.67 511.00 39.00
C 511.00 33.68 511.20 28.32 511.00 23.00
C 510.58 12.13 504.14 3.37 494.00 0.00
L 451.00 0.00
C 435.17 5.00 432.20 22.99 434.00 38.00
C 426.00 38.00 418.00 38.00 410.00 38.00
C 411.52 23.31 410.61 5.73 395.00 0.00
L 348.00 0.00
C 331.97 5.42 330.95 23.31 331.00 38.00
C 323.00 38.00 315.00 38.00 307.00 38.00
C 310.78 23.76 307.48 4.72 292.00 0.00
L 246.00 0.00
C 230.11 4.85 227.12 23.06 229.00 38.00
C 221.00 38.00 213.00 38.00 205.00 38.00
C 206.46 23.36 205.55 5.72 190.00 0.00
L 143.00 0.00
C 127.20 5.07 125.32 23.36 126.00 38.00
C 118.00 38.00 110.00 38.00 102.00 38.00
C 105.10 23.62 102.74 4.90 87.00 0.00
L 42.00 0.00
C 13.53 15.29 26.99 47.80 25.00 77.00 C 23.01 106.20 26.50 142.82 25.00 173.00 C 23.50 203.18 24.10 236.66 22.99 266.99 C 21.89 297.32 19.81 328.15 18.00 358.00 C 16.19 387.85 14.21 417.95 11.00 447.00 C 7.79 476.05 5.21 503.06 0.00 531.00
M 82.00 8.00 
C 93.74 10.43 95.00 18.98 95.00 30.00
C 95.00 33.39 94.27 37.70 95.00 41.00
C 99.03 51.91 111.62 43.10 122.00 46.00 C 132.38 48.90 136.19 34.97 134.00 26.00 C 131.81 17.03 140.79 9.49 148.00 8.00
C 158.24 5.88 174.87 5.49 185.00 8.00
C 193.03 9.99 197.55 16.38 197.00 24.00 C 196.45 31.62 194.43 45.66 203.03 45.97 C 211.62 46.29 222.75 48.00 231.00 46.00 C 239.25 44.00 237.01 31.39 237.00 24.00 C 236.99 16.61 242.29 9.91 250.00 8.00
C 260.20 5.47 276.83 5.89 287.00 8.00
C 294.67 9.59 299.75 15.79 300.00 23.00 C 300.25 30.21 296.65 45.00 305.08 45.92 C 313.51 46.85 325.60 47.52 333.67 45.67 C 341.74 43.82 339.18 31.50 339.98 23.98 C 340.77 16.45 344.40 10.13 353.00 8.00
C 362.91 5.55 380.16 5.56 390.00 8.00
C 396.93 9.72 403.02 16.30 402.99 23.01 C 402.96 29.72 398.29 44.36 407.08 45.92 C 415.87 47.48 427.16 47.21 436.00 46.00 C 444.84 44.79 441.64 30.47 442.00 23.00 C 442.36 15.53 448.28 9.60 456.00 8.00
C 465.50 6.03 479.57 6.05 489.00 8.00
C 505.61 11.44 504.34 26.00 504.00 41.00 C 503.66 56.00 504.00 73.75 504.00 89.00
C 506.25 112.21 506.24 139.86 504.00 163.00
C 504.00 180.33 504.00 197.67 504.00 215.00
C 504.00 218.75 503.29 222.99 503.00 226.00
C 503.00 248.74 502.02 270.74 501.07 293.07 C 500.12 315.41 499.38 337.92 498.00 360.00 C 496.62 382.08 494.82 402.00 493.02 424.02 C 491.22 446.05 489.27 465.60 487.00 488.00 C 484.74 510.40 481.28 525.04 479.01 549.01 C 476.73 572.98 449.16 568.00 430.00 568.00
C 425.92 568.00 421.34 567.32 418.00 567.00
C 410.33 567.00 402.67 567.00 395.00 567.00
C 391.90 567.00 388.36 566.23 386.00 566.00
C 295.72 566.00 206.22 559.00 116.00 559.00
C 112.90 559.00 109.36 558.23 107.00 558.00
C 88.19 558.00 64.24 555.86 46.00 557.00 C 27.76 558.14 4.19 554.94 7.99 533.99 C 11.80 513.05 12.39 498.91 15.00 479.00 C 17.61 459.09 19.51 441.79 21.00 422.00 C 22.49 402.21 24.82 383.82 25.99 363.99 C 27.17 344.17 27.67 324.93 29.00 305.00 C 30.33 285.07 29.89 264.16 31.00 244.00 C 32.11 223.84 31.26 203.42 32.00 183.00 C 32.74 162.58 33.26 141.84 33.00 121.00 C 32.74 100.16 33.00 78.88 33.00 58.00
C 32.51 52.96 32.00 46.73 32.00 41.00
C 32.00 26.46 30.45 11.67 47.00 8.00
C 56.91 5.80 72.15 5.96 82.00 8.00 Z"/>
</g>
<g fill="#000000" fill-opacity="0.00" stroke="None">
<path d="
M 143.00 0.00 
L 87.00 0.00
C 102.74 4.90 105.10 23.62 102.00 38.00
C 110.00 38.00 118.00 38.00 126.00 38.00
C 125.32 23.36 127.20 5.07 143.00 0.00 Z"/>
</g>
<g fill="#000000" fill-opacity="0.00" stroke="None">
<path d="
M 246.00 0.00 
L 190.00 0.00
C 205.55 5.72 206.46 23.36 205.00 38.00
C 213.00 38.00 221.00 38.00 229.00 38.00
C 227.12 23.06 230.11 4.85 246.00 0.00 Z"/>
</g>
<g fill="#000000" fill-opacity="0.00" stroke="None">
<path d="
M 348.00 0.00 
L 292.00 0.00
C 307.48 4.72 310.78 23.76 307.00 38.00
C 315.00 38.00 323.00 38.00 331.00 38.00
C 330.95 23.31 331.97 5.42 348.00 0.00 Z"/>
</g>
<g fill="#000000" fill-opacity="0.00" stroke="None">
<path d="
M 451.00 0.00 
L 395.00 0.00
C 410.61 5.73 411.52 23.31 410.00 38.00
C 418.00 38.00 426.00 38.00 434.00 38.00
C 432.20 22.99 435.17 5.00 451.00 0.00 Z"/>
</g>
<g fill="#000000" fill-opacity="0.00" stroke="None">
<path d="
M 511.00 23.00 
C 511.00 22.98 512.00 23.00 512.00 23.00
L 512.00 0.00
L 494.00 0.00
C 504.14 3.37 510.58 12.13 511.00 23.00 Z"/>
</g>
<g fill="#A9908C" fill-opacity="1.00" stroke="None">
<path d="
M 47.00 8.00 
C 57.94 6.88 71.04 7.00 82.00 8.00
C 72.15 5.96 56.91 5.80 47.00 8.00 Z"/>
</g>
<g fill="#A9918D" fill-opacity="1.00" stroke="None">
<path d="
M 148.00 8.00 
C 159.43 6.96 173.61 6.59 185.00 8.00
C 174.87 5.49 158.24 5.88 148.00 8.00 Z"/>
</g>
<g fill="#A9918C" fill-opacity="1.00" stroke="None">
<path d="
M 250.00 8.00 
C 261.39 6.59 275.57 6.96 287.00 8.00
C 276.83 5.89 260.20 5.47 250.00 8.00 Z"/>
</g>
<g fill="#A9918C" fill-opacity="1.00" stroke="None">
<path d="
M 353.00 8.00 
C 364.14 6.62 378.86 6.62 390.00 8.00
C 380.16 5.56 362.91 5.55 353.00 8.00 Z"/>
</g>
<g fill="#AA928E" fill-opacity="1.00" stroke="None">
<path d="
M 456.00 8.00 
C 466.40 7.05 478.60 7.05 489.00 8.00
C 479.57 6.05 465.50 6.03 456.00 8.00 Z"/>
</g>
<g fill="#FEF9F0" fill-opacity="1.00" stroke="None">
<path d="
M 32.00 41.00 
C 32.49 46.04 33.00 52.27 33.00 58.00
C 33.00 78.88 32.74 100.16 33.00 121.00 C 33.26 141.84 32.74 162.58 32.00 183.00 C 31.26 203.42 32.11 223.84 31.00 244.00 C 29.89 264.16 30.33 285.07 29.00 305.00 C 27.67 324.93 27.17 344.17 25.99 363.99 C 24.82 383.82 22.49 402.21 21.00 422.00 C 19.51 441.79 17.61 459.09 15.00 479.00 C 12.39 498.91 11.80 513.05 7.99 533.99 C 4.19 554.94 27.76 558.14 46.00 557.00 C 64.24 555.86 88.19 558.00 107.00 558.00
C 110.10 558.00 113.64 558.77 116.00 559.00
C 206.22 559.00 295.72 566.00 386.00 566.00
C 389.10 566.00 392.64 566.77 395.00 567.00
C 402.67 567.00 410.33 567.00 418.00 567.00
C 422.08 567.00 426.66 567.68 430.00 568.00
C 449.16 568.00 476.73 572.98 479.01 549.01 C 481.28 525.04 484.74 510.40 487.00 488.00 C 489.27 465.60 491.22 446.05 493.02 424.02 C 494.82 402.00 496.62 382.08 498.00 360.00 C 499.38 337.92 500.12 315.41 501.07 293.07 C 502.02 270.74 503.00 248.74 503.00 226.00
C 503.00 222.25 503.71 218.01 504.00 215.00
C 504.00 197.67 504.00 180.33 504.00 163.00
C 504.00 138.33 504.00 113.67 504.00 89.00
C 504.00 73.75 503.66 56.00 504.00 41.00 C 504.34 26.00 505.61 11.44 489.00 8.00
C 478.60 7.05 466.40 7.05 456.00 8.00
C 448.28 9.60 442.36 15.53 442.00 23.00 C 441.64 30.47 444.84 44.79 436.00 46.00 C 427.16 47.21 415.87 47.48 407.08 45.92 C 398.29 44.36 402.96 29.72 402.99 23.01 C 403.02 16.30 396.93 9.72 390.00 8.00
C 378.86 6.62 364.14 6.62 353.00 8.00
C 344.40 10.13 340.77 16.45 339.98 23.98 C 339.18 31.50 341.74 43.82 333.67 45.67 C 325.60 47.52 313.51 46.85 305.08 45.92 C 296.65 45.00 300.25 30.21 300.00 23.00 C 299.75 15.79 294.67 9.59 287.00 8.00
C 275.57 6.96 261.39 6.59 250.00 8.00
C 242.29 9.91 236.99 16.61 237.00 24.00 C 237.01 31.39 239.25 44.00 231.00 46.00 C 222.75 48.00 211.62 46.29 203.03 45.97 C 194.43 45.66 196.45 31.62 197.00 24.00 C 197.55 16.38 193.03 9.99 185.00 8.00
C 173.61 6.59 159.43 6.96 148.00 8.00
C 140.79 9.49 131.81 17.03 134.00 26.00 C 136.19 34.97 132.38 48.90 122.00 46.00 C 111.62 43.10 99.03 51.91 95.00 41.00
C 93.60 37.20 94.65 33.57 95.00 30.00
C 95.00 18.98 93.74 10.43 82.00 8.00
C 71.04 7.00 57.94 6.88 47.00 8.00
C 30.45 11.67 32.00 26.46 32.00 41.00
M 156.00 116.00 
C 165.75 119.60 152.56 127.45 146.00 125.00 C 139.44 122.55 128.00 125.37 121.00 125.00 C 114.00 124.63 101.45 123.76 95.00 125.00 C 88.55 126.24 74.28 123.29 80.26 117.26 C 86.24 111.23 97.72 117.47 105.00 116.00 C 112.28 114.53 122.54 115.50 130.00 116.00 C 137.46 116.50 149.05 113.43 156.00 116.00
M 345.00 116.00 
C 352.85 120.05 341.41 127.55 335.00 125.00 C 328.59 122.45 318.23 126.21 311.00 125.00 C 303.77 123.79 294.55 125.68 287.00 125.00 C 279.45 124.32 271.69 125.56 264.00 125.00 C 256.31 124.44 247.73 125.80 240.00 125.00 C 232.27 124.20 223.58 126.58 216.00 125.00 C 208.42 123.42 199.40 128.57 192.33 124.67 C 185.26 120.77 195.14 113.73 202.00 116.00 C 208.86 118.27 218.57 114.92 226.00 116.00 C 233.43 117.08 242.39 115.39 250.00 116.00 C 257.61 116.61 265.35 115.48 273.00 116.00 C 280.65 116.52 289.43 115.24 297.00 116.00 C 304.57 116.76 313.80 114.49 321.00 116.00 C 328.20 117.51 338.70 112.74 345.00 116.00
M 447.00 116.00 
C 456.93 119.01 445.91 127.39 439.00 125.00 C 432.09 122.61 421.07 125.51 414.00 125.00 C 406.93 124.49 394.31 124.16 388.00 125.00 C 381.69 125.84 366.80 124.41 371.78 117.78 C 376.76 111.15 388.99 117.46 396.00 116.00 C 403.01 114.54 413.55 115.65 421.00 116.00 C 428.45 116.35 439.83 113.82 447.00 116.00
M 391.00 263.00 
C 391.37 266.77 391.36 271.29 391.00 275.00
C 391.00 299.44 376.72 324.42 361.25 342.25 C 345.78 360.08 328.63 376.49 309.30 388.30 C 289.98 400.12 264.32 421.44 241.32 411.68 C 218.33 401.92 201.33 388.85 182.25 372.75 C 163.17 356.66 150.45 340.17 139.08 317.92 C 127.70 295.68 126.46 260.69 139.75 238.75 C 153.04 216.82 177.24 201.58 203.00 204.00 C 228.76 206.42 245.66 225.10 261.00 244.00
C 280.59 224.39 305.05 201.63 335.00 204.00 C 364.95 206.37 390.40 233.15 391.00 263.00
M 109.00 213.00 
C 117.30 216.06 107.77 225.49 101.00 222.00 C 94.23 218.51 85.10 225.54 78.00 222.00 C 70.90 218.46 79.38 210.50 86.00 213.00 C 92.62 215.50 102.33 210.54 109.00 213.00
M 444.00 213.00 
C 452.72 216.22 441.90 225.74 435.00 222.00 C 428.10 218.27 418.59 225.94 411.33 221.67 C 404.07 217.40 413.12 210.57 420.00 213.00 C 426.88 215.43 437.10 210.45 444.00 213.00
M 106.00 310.00 
C 113.58 313.09 104.84 322.31 98.00 319.00 C 91.16 315.69 82.79 322.33 75.33 318.67 C 67.87 315.01 75.84 307.36 83.00 310.00 C 90.16 312.64 99.06 307.17 106.00 310.00
M 442.00 310.00 
C 447.77 312.98 441.78 321.58 436.00 319.00 C 430.22 316.42 422.15 321.72 416.33 318.67 C 410.51 315.62 416.24 307.50 422.00 310.00 C 427.76 312.50 436.51 307.16 442.00 310.00
M 177.00 407.00 
C 185.96 410.31 174.86 418.84 168.00 416.00 C 161.14 413.16 151.48 417.54 144.00 416.00 C 136.52 414.46 127.75 417.26 120.00 416.00 C 112.25 414.74 103.85 417.83 96.00 416.00 C 88.15 414.17 79.84 419.62 72.00 416.00 C 64.16 412.38 73.68 404.31 81.00 407.00 C 88.32 409.69 97.38 405.60 105.00 407.00 C 112.62 408.40 121.32 405.96 129.00 407.00 C 136.68 408.04 145.47 405.63 153.00 407.00 C 160.53 408.37 169.94 404.39 177.00 407.00
M 439.00 407.00 
C 447.00 411.14 434.54 418.65 428.00 416.00 C 421.46 413.35 410.46 417.43 403.00 416.00 C 395.54 414.57 385.80 417.17 378.00 416.00 C 370.20 414.83 360.79 417.69 353.00 416.00 C 345.21 414.31 335.91 419.70 328.78 415.22 C 321.64 410.74 331.91 404.94 339.00 407.00 C 346.09 409.06 356.35 405.83 364.00 407.00 C 371.65 408.17 381.26 405.93 389.00 407.00 C 396.74 408.07 406.55 405.33 414.00 407.00 C 421.45 408.67 432.44 403.61 439.00 407.00
M 92.00 482.00 
C 98.41 482.62 108.11 482.99 115.00 483.00 C 121.89 483.01 131.85 483.12 138.00 484.00 C 144.15 484.88 156.62 479.92 158.92 487.08 C 161.21 494.24 147.12 493.49 141.00 493.00 C 134.88 492.51 124.29 491.22 117.00 492.00 C 109.71 492.78 101.69 490.32 94.00 491.00 C 86.31 491.68 78.08 489.48 70.00 491.00 C 61.92 492.52 57.61 481.67 67.00 482.00 C 76.40 482.34 82.93 481.12 92.00 482.00
M 200.00 485.00 
C 206.83 485.66 215.58 485.61 223.00 486.00 C 230.42 486.39 238.47 486.84 246.00 487.00 C 253.53 487.16 261.75 486.88 269.00 488.00 C 276.25 489.12 285.65 483.75 291.25 489.75 C 296.84 495.76 283.36 498.57 277.00 497.00 C 270.64 495.43 261.17 496.52 254.00 496.00 C 246.83 495.48 238.19 496.61 231.00 495.00 C 223.81 493.39 213.97 497.78 207.00 495.00 C 200.03 492.22 191.62 498.72 185.75 492.25 C 179.89 485.77 194.96 484.51 200.00 485.00
M 365.00 490.00 
C 374.10 490.88 382.97 491.65 393.00 491.00 C 403.03 490.35 409.93 494.63 421.00 492.00 C 432.07 489.37 436.76 500.95 425.00 501.00 C 413.24 501.05 407.90 498.76 397.00 500.00 C 386.10 501.24 379.29 498.32 368.99 499.01 C 358.69 499.70 351.51 496.54 341.00 498.00 C 330.49 499.46 323.40 490.32 336.00 490.00 C 348.60 489.68 353.27 488.86 365.00 490.00 Z"/>
</g>
<g fill="#4C1E1E" fill-opacity="0.15" stroke="None">
<path d="
M 511.00 39.00 
C 511.00 38.96 512.00 39.00 512.00 39.00
L 512.00 23.00
C 512.00 23.00 511.00 22.98 511.00 23.00
C 511.20 28.32 511.00 33.68 511.00 39.00 Z"/>
</g>
<g fill="#9C807C" fill-opacity="1.00" stroke="None">
<path d="
M 95.00 41.00 
C 94.27 37.70 95.00 33.39 95.00 30.00
C 94.65 33.57 93.60 37.20 95.00 41.00 Z"/>
</g>
<g fill="#4B1F1F" fill-opacity="0.38" stroke="None">
<path d="
M 511.00 53.00 
C 511.00 52.96 512.00 53.00 512.00 53.00
L 512.00 39.00
C 512.00 39.00 511.00 38.96 511.00 39.00
C 511.00 43.67 511.00 48.33 511.00 53.00 Z"/>
</g>
<g fill="#987C78" fill-opacity="1.00" stroke="None">
<path d="
M 33.00 58.00 
C 33.00 52.27 32.49 46.04 32.00 41.00
C 32.00 46.73 32.51 52.96 33.00 58.00 Z"/>
</g>
<g fill="#4C1E1E" fill-opacity="0.64" stroke="None">
<path d="
M 512.00 80.00 
L 512.00 53.00
C 512.00 53.00 511.00 52.96 511.00 53.00
C 511.00 61.84 510.18 71.91 512.00 80.00 Z"/>
</g>
<g fill="#9F8480" fill-opacity="1.00" stroke="None">
<path d="
M 504.00 163.00 
C 506.24 139.86 506.25 112.21 504.00 89.00
C 504.00 113.67 504.00 138.33 504.00 163.00 Z"/>
</g>
<g fill="#8BB6D7" fill-opacity="1.00" stroke="None">
<path d="
M 156.00 116.00 
C 149.05 113.43 137.46 116.50 130.00 116.00 C 122.54 115.50 112.28 114.53 105.00 116.00 C 97.72 117.47 86.24 111.23 80.26 117.26 C 74.28 123.29 88.55 126.24 95.00 125.00 C 101.45 123.76 114.00 124.63 121.00 125.00 C 128.00 125.37 139.44 122.55 146.00 125.00 C 152.56 127.45 165.75 119.60 156.00 116.00 Z"/>
</g>
<g fill="#8BB6D7" fill-opacity="1.00" stroke="None">
<path d="
M 345.00 116.00 
C 338.70 112.74 328.20 117.51 321.00 116.00 C 313.80 114.49 304.57 116.76 297.00 116.00 C 289.43 115.24 280.65 116.52 273.00 116.00 C 265.35 115.48 257.61 116.61 250.00 116.00 C 242.39 115.39 233.43 117.08 226.00 116.00 C 218.57 114.92 208.86 118.27 202.00 116.00 C 195.14 113.73 185.26 120.77 192.33 124.67 C 199.40 128.57 208.42 123.42 216.00 125.00 C 223.58 126.58 232.27 124.20 240.00 125.00 C 247.73 125.80 256.31 124.44 264.00 125.00 C 271.69 125.56 279.45 124.32 287.00 125.00 C 294.55 125.68 303.77 123.79 311.00 125.00 C 318.23 126.21 328.59 122.45 335.00 125.00 C 341.41 127.55 352.85 120.05 345.00 116.00 Z"/>
</g>
<g fill="#8BB6D7" fill-opacity="1.00" stroke="None">
<path d="
M 447.00 116.00 
C 439.83 113.82 428.45 116.35 421.00 116.00 C 413.55 115.65 403.01 114.54 396.00 116.00 C 388.99 117.46 376.76 111.15 371.78 117.78 C 366.80 124.41 381.69 125.84 388.00 125.00 C 394.31 124.16 406.93 124.49 414.00 125.00 C 421.07 125.51 432.09 122.61 439.00 125.00 C 445.91 127.39 456.93 119.01 447.00 116.00 Z"/>
</g>
<g fill="#4B1F1F" fill-opacity="0.68" stroke="None">
<path d="
M 511.00 187.00 
C 511.00 186.96 512.00 187.00 512.00 187.00
L 512.00 166.00
C 510.17 172.01 511.00 180.17 511.00 187.00 Z"/>
</g>
<g fill="#4C1E1E" fill-opacity="0.42" stroke="None">
<path d="
M 511.00 203.00 
C 511.00 202.96 512.00 203.00 512.00 203.00
L 512.00 187.00
C 512.00 187.00 511.00 186.96 511.00 187.00
C 511.00 192.33 511.00 197.67 511.00 203.00 Z"/>
</g>
<g fill="#4B1D1D" fill-opacity="0.17" stroke="None">
<path d="
M 511.00 218.00 
C 511.00 217.96 512.00 218.00 512.00 218.00
L 512.00 203.00
C 512.00 203.00 511.00 202.96 511.00 203.00
C 511.00 208.00 511.00 213.00 511.00 218.00 Z"/>
</g>
<g fill="#FF2780" fill-opacity="1.00" stroke="None">
<path d="
M 391.00 275.00 
C 391.00 271.00 391.00 267.00 391.00 263.00
C 390.40 233.15 364.95 206.37 335.00 204.00 C 305.05 201.63 280.59 224.39 261.00 244.00
C 245.66 225.10 228.76 206.42 203.00 204.00 C 177.24 201.58 153.04 216.82 139.75 238.75 C 126.46 260.69 127.70 295.68 139.08 317.92 C 150.45 340.17 163.17 356.66 182.25 372.75 C 201.33 388.85 218.33 401.92 241.32 411.68 C 264.32 421.44 289.98 400.12 309.30 388.30 C 328.63 376.49 345.78 360.08 361.25 342.25 C 376.72 324.42 391.00 299.44 391.00 275.00 Z"/>
</g>
<g fill="#8CB7D7" fill-opacity="1.00" stroke="None">
<path d="
M 109.00 213.00 
C 102.33 210.54 92.62 215.50 86.00 213.00 C 79.38 210.50 70.90 218.46 78.00 222.00 C 85.10 225.54 94.23 218.51 101.00 222.00 C 107.77 225.49 117.30 216.06 109.00 213.00 Z"/>
</g>
<g fill="#8BB6D7" fill-opacity="1.00" stroke="None">
<path d="
M 444.00 213.00 
C 437.10 210.45 426.88 215.43 420.00 213.00 C 413.12 210.57 404.07 217.40 411.33 221.67 C 418.59 225.94 428.10 218.27 435.00 222.00 C 441.90 225.74 452.72 216.22 444.00 213.00 Z"/>
</g>
<g fill="#A78E8A" fill-opacity="1.00" stroke="None">
<path d="
M 503.00 226.00 
C 503.29 222.99 504.00 218.75 504.00 215.00
C 503.71 218.01 503.00 222.25 503.00 226.00 Z"/>
</g>
<g fill="#000000" fill-opacity="0.00" stroke="None">
<path d="
M 468.00 576.00 
L 512.00 576.00
L 512.00 218.00
C 512.00 218.00 511.00 217.96 511.00 218.00
C 511.00 250.13 509.62 284.68 508.00 316.00 C 506.38 347.32 505.17 379.94 502.00 410.00 C 498.83 440.06 498.57 472.83 493.00 501.00 C 487.43 529.17 495.59 561.51 468.00 576.00 Z"/>
</g>
<g fill="#FF9EC0" fill-opacity="1.00" stroke="None">
<path d="
M 391.00 275.00 
C 391.36 271.29 391.37 266.77 391.00 263.00
C 391.00 267.00 391.00 271.00 391.00 275.00 Z"/>
</g>
<g fill="#8CB7D7" fill-opacity="1.00" stroke="None">
<path d="
M 106.00 310.00 
C 99.06 307.17 90.16 312.64 83.00 310.00 C 75.84 307.36 67.87 315.01 75.33 318.67 C 82.79 322.33 91.16 315.69 98.00 319.00 C 104.84 322.31 113.58 313.09 106.00 310.00 Z"/>
</g>
<g fill="#8CB7D7" fill-opacity="1.00" stroke="None">
<path d="
M 442.00 310.00 
C 436.51 307.16 427.76 312.50 422.00 310.00 C 416.24 307.50 410.51 315.62 416.33 318.67 C 422.15 321.72 430.22 316.42 436.00 319.00 C 441.78 321.58 447.77 312.98 442.00 310.00 Z"/>
</g>
<g fill="#8BB6D7" fill-opacity="1.00" stroke="None">
<path d="
M 177.00 407.00 
C 169.94 404.39 160.53 408.37 153.00 407.00 C 145.47 405.63 136.68 408.04 129.00 407.00 C 121.32 405.96 112.62 408.40 105.00 407.00 C 97.38 405.60 88.32 409.69 81.00 407.00 C 73.68 404.31 64.16 412.38 72.00 416.00 C 79.84 419.62 88.15 414.17 96.00 416.00 C 103.85 417.83 112.25 414.74 120.00 416.00 C 127.75 417.26 136.52 414.46 144.00 416.00 C 151.48 417.54 161.14 413.16 168.00 416.00 C 174.86 418.84 185.96 410.31 177.00 407.00 Z"/>
</g>
<g fill="#8BB6D7" fill-opacity="1.00" stroke="None">
<path d="
M 439.00 407.00 
C 432.44 403.61 421.45 408.67 414.00 407.00 C 406.55 405.33 396.74 408.07 389.00 407.00 C 381.26 405.93 371.65 408.17 364.00 407.00 C 356.35 405.83 346.09 409.06 339.00 407.00 C 331.91 404.94 321.64 410.74 328.78 415.22 C 335.91 419.70 345.21 414.31 353.00 416.00 C 360.79 417.69 370.20 414.83 378.00 416.00 C 385.80 417.17 395.54 414.57 403.00 416.00 C 410.46 417.43 421.46 413.35 428.00 416.00 C 434.54 418.65 447.00 411.14 439.00 407.00 Z"/>
</g>
<g fill="#8AB6D7" fill-opacity="1.00" stroke="None">
<path d="
M 92.00 482.00 
C 82.93 481.12 76.40 482.34 67.00 482.00 C 57.61 481.67 61.92 492.52 70.00 491.00 C 78.08 489.48 86.31 491.68 94.00 491.00 C 101.69 490.32 109.71 492.78 117.00 492.00 C 124.29 491.22 134.88 492.51 141.00 493.00 C 147.12 493.49 161.21 494.24 158.92 487.08 C 156.62 479.92 144.15 484.88 138.00 484.00 C 131.85 483.12 121.89 483.01 115.00 483.00 C 108.11 482.99 98.41 482.62 92.00 482.00 Z"/>
</g>
<g fill="#8AB6D7" fill-opacity="1.00" stroke="None">
<path d="
M 200.00 485.00 
C 194.96 484.51 179.89 485.77 185.75 492.25 C 191.62 498.72 200.03 492.22 207.00 495.00 C 213.97 497.78 223.81 493.39 231.00 495.00 C 238.19 496.61 246.83 495.48 254.00 496.00 C 261.17 496.52 270.64 495.43 277.00 497.00 C 283.36 498.57 296.84 495.76 291.25 489.75 C 285.65 483.75 276.25 489.12 269.00 488.00 C 261.75 486.88 253.53 487.16 246.00 487.00 C 238.47 486.84 230.42 486.39 223.00 486.00 C 215.58 485.61 206.83 485.66 200.00 485.00 Z"/>
</g>
<g fill="#89B5D6" fill-opacity="1.00" stroke="None">
<path d="
M 365.00 490.00 
C 353.27 488.86 348.60 489.68 336.00 490.00 C 323.40 490.32 330.49 499.46 341.00 498.00 C 351.51 496.54 358.69 499.70 368.99 499.01 C 379.29 498.32 386.10 501.24 397.00 500.00 C 407.90 498.76 413.24 501.05 425.00 501.00 C 436.76 500.95 432.07 489.37 421.00 492.00 C 409.93 494.63 403.03 490.35 393.00 491.00 C 382.97 491.65 374.10 490.88 365.00 490.00 Z"/>
</g>
<g fill="#000000" fill-opacity="0.00" stroke="None">
<path d="
M 0.00 576.00 
L 427.00 576.00
C 427.00 575.50 427.00 575.00 427.00 575.00
C 397.35 575.00 367.38 573.70 338.00 573.00 C 308.62 572.30 279.07 571.14 250.00 570.00 C 220.93 568.86 189.51 569.61 161.00 568.00 C 132.49 566.39 100.34 567.40 73.00 565.00 C 45.66 562.60 14.43 573.25 0.00 547.00
L 0.00 576.00 Z"/>
</g>
<g fill="#967976" fill-opacity="1.00" stroke="None">
<path d="
M 116.00 559.00 
C 113.64 558.77 110.10 558.00 107.00 558.00
C 109.36 558.23 112.90 559.00 116.00 559.00 Z"/>
</g>
<g fill="#A58C88" fill-opacity="1.00" stroke="None">
<path d="
M 395.00 567.00 
C 392.64 566.77 389.10 566.00 386.00 566.00
C 388.36 566.23 391.90 567.00 395.00 567.00 Z"/>
</g>
<g fill="#A08581" fill-opacity="1.00" stroke="None">
<path d="
M 430.00 568.00 
C 426.66 567.68 422.08 567.00 418.00 567.00
C 421.34 567.32 425.92 568.00 430.00 568.00 Z"/>
</g>
<g fill="#4A1E1D" fill-opacity="0.23" stroke="None">
<path d="
M 427.00 576.00 
L 441.00 576.00
C 441.00 575.50 441.00 575.00 441.00 575.00
C 436.33 575.00 431.67 575.00 427.00 575.00
C 427.00 575.00 427.00 575.50 427.00 576.00 Z"/>
</g>
<g fill="#4C1F1F" fill-opacity="0.60" stroke="None">
<path d="
M 441.00 576.00 
L 453.00 576.00
C 449.99 574.18 444.83 575.00 441.00 575.00
C 441.00 575.00 441.00 575.50 441.00 576.00 Z"/>
</g>
</svg>